<?xml version="1.0" encoding="utf-8"?>
<svg id="master-artboard" viewBox="0 0 1400 980" xmlns="http://www.w3.org/2000/svg" width="1400px" height="980px" version="1.1" style="shape-rendering:geometricPrecision; text-rendering:geometricPrecision; image-rendering:optimizeQuality; fill-rule:evenodd; clip-rule:evenodd"><rect id="ee-background" x="0" y="0" width="1400" height="980" style="fill: white; fill-opacity: 0; pointer-events: none;"/>
 
 <metadata id="CorelCorpID_0Corel-Layer"/>
<g transform="matrix(0.8119144439697265, 0, 0, 0.8119144439697265, -1.4436200857162476, -333.9809252037697)"><g transform="translate(0.000000,1894.000000) scale(0.100000,-0.100000)" fill="#000000" stroke="none">
<path d="M0 5295 l0 -5295 8633 2 8632 3 1 165 c6 836 14 9370 9 9370 -3 0&#10;-38 -22 -78 -48 -162 -110 -794 -492 -812 -492 -2 0 -28 -14 -57 -31 -82 -49&#10;-421 -220 -539 -272 -181 -80 -381 -133 -639 -171 -58 -9 -283 -34 -500 -56&#10;-775 -79 -1086 -143 -1423 -291 -225 -99 -513 -284 -858 -550 -374 -289 -481&#10;-359 -724 -479 -273 -134 -624 -234 -1000 -286 -195 -27 -563 -25 -745 5 -587&#10;94 -1045 332 -1814 940 -1022 809 -1837 1182 -3026 1385 -350 60 -620 93&#10;-1210 146 -792 72 -1139 118 -1497 199 -264 60 -555 154 -855 275 -402 162&#10;-687 307 -1218 616 -130 75 -246 142 -258 149 l-22 12 0 -5296z" style="fill: rgb(28, 29, 36);"/>
</g></g></svg>