<?xml version="1.0" encoding="utf-8"?>
<svg id="master-artboard" viewBox="0 0 1400 980" xmlns="http://www.w3.org/2000/svg" width="1400px" height="980px" version="1.1" style="shape-rendering:geometricPrecision; text-rendering:geometricPrecision; image-rendering:optimizeQuality; fill-rule:evenodd; clip-rule:evenodd"><rect id="ee-background" x="0" y="0" width="1400" height="980" style="fill: rgb(34, 255, 18); fill-opacity: 0; pointer-events: none;"/>
 
 <metadata id="CorelCorpID_0Corel-Layer"/>
<g transform="matrix(3.920000244140625, 0, 0, 3.920000244140625, 209.99992020992795, 0)"/><g transform="matrix(3.920000314712524, 0, 0, 3.920000314712524, 200.74940307115855, -16.959287830642893)"><g id="Circle-Bottom" transform="matrix(-0.8539135851383144, -0.5550449614299773, 0.5550449614299773, -0.8539135851383144, 165.06860459357256, 341.9487321270247)">
        <path d="M40.214,152.349C40.214,91.723 89.434,42.502 150.06,42.502C210.686,42.502 259.906,91.723 259.906,152.349" style="fill: rgb(0, 0, 0); stroke: rgb(0, 0, 0); stroke-width: 10.34px;"/>
    </g><g id="Circle-Top" transform="matrix(-0.8568633794784547, -0.551020085811615, 0.551020085811615, -0.8568633794784547, 164.8468378601795, 343.77587890625006)">
        <path d="M259.906,152.349C259.906,212.974 210.686,262.195 150.06,262.195C89.434,262.195 40.214,212.974 40.214,152.349" style="fill: rgb(0, 0, 0); stroke: rgb(0, 0, 0); stroke-width: 10.34px; fill-opacity: 1;"/>
    </g><g id="B-and-N" transform="matrix(0.710712,0,0,0.710712,34.1055,34.5475)">
        <g id="B" transform="matrix(1.28939,0,0,1.39904,-12.0316,-59.5861)">
            <path d="M40.43,111.126L40.432,141.87C40.432,141.87 39.124,181.321 76.613,181.321C114.102,181.321 114.102,150.371 114.102,130.318C114.102,110.266 135.68,105.471 144.834,105.471C153.989,105.471 175.349,109.438 175.349,125" style="fill: none; stroke: rgb(255, 255, 255); stroke-width: 21;"/>
        </g>
        <g transform="matrix(1.4061784744262695, -0.0492323897778988, 0.0492323897778988, 1.4061784744262695, -53.6137604398765, -39.58849334716797)">
            <path d="M186.241,116.489C186.241,116.489 184.182,190.445 218.837,177.076" style="fill: none; stroke: rgb(255, 255, 255); stroke-width: 19;"/>
        </g>
        <g transform="matrix(1.407039999961853, 0, 0, 1.407039999961853, -46.88100977982202, -48.05630574745496)">
            <path d="M62.6,105.021C62.6,105.021 63.781,66.816 32.813,68.49" style="fill: none; stroke: rgb(255, 255, 255); stroke-width: 21;"/>
        </g>
        <g transform="matrix(0.9664310216903688, 0, 0, 1, 6.703593254089384, -13.28857949542622)">
            <path d="M38.016,112.025C38.016,112.025 39.199,105.94 44.332,99.309C50.581,91.237 62.685,82.356 85.637,82.662C113.504,83.034 119.151,94.56 125,100.409" style="fill: none; stroke: rgb(255, 255, 255); stroke-width: 24;"/>
        </g>
    </g></g></svg>