<svg width="362.793" height="76.71" viewBox="0 0 362.793 76.71" xmlns="http://www.w3.org/2000/svg"><g id="svgGroup" stroke-linecap="round" fill-rule="evenodd" font-size="9pt" stroke="#ffffff49" stroke-width="0.25mm" fill="#ffffff00" style="stroke:#ffffff49;stroke-width:0.25mm;fill:#ffffff00"><path d="M 220.752 14.795 L 220.752 1.367 L 250.439 1.367 L 250.439 14.795 L 243.652 14.795 L 243.652 45.508 A 30.951 30.951 0 0 0 243.798 48.595 Q 244.024 50.852 244.604 52.637 Q 245.557 55.567 247.266 57.422 Q 248.975 59.278 251.318 60.132 A 14.231 14.231 0 0 0 255.039 60.93 A 17.093 17.093 0 0 0 256.445 60.987 A 19.65 19.65 0 0 0 259.484 60.761 A 15.675 15.675 0 0 0 261.694 60.254 A 9.238 9.238 0 0 0 265.747 57.74 A 9.947 9.947 0 0 0 267.297 55.546 Q 267.828 54.542 268.225 53.329 A 17.238 17.238 0 0 0 268.335 52.979 Q 269.028 50.695 269.189 47.522 A 39.641 39.641 0 0 0 269.238 45.508 L 269.238 14.795 L 261.377 14.795 L 261.377 1.367 L 291.064 1.367 L 291.064 14.795 L 285.156 14.795 L 285.156 43.604 Q 285.156 51.416 282.91 57.495 A 32.564 32.564 0 0 1 279.7 63.974 A 27.326 27.326 0 0 1 276.733 67.774 Q 272.803 71.973 267.505 74.17 A 29.289 29.289 0 0 1 256.341 76.367 A 33.273 33.273 0 0 1 256.152 76.367 A 29.328 29.328 0 0 1 246.574 74.821 A 27.685 27.685 0 0 1 244.922 74.195 A 26.16 26.16 0 0 1 235.815 67.896 A 28.744 28.744 0 0 1 230.913 60.704 A 34.739 34.739 0 0 1 229.688 57.862 A 33.819 33.819 0 0 1 227.812 50.295 A 43.925 43.925 0 0 1 227.441 44.483 L 227.441 14.795 L 220.752 14.795 Z M 312.695 75.391 L 312.695 62.012 L 320.361 62.012 L 320.361 14.307 L 311.377 14.307 L 311.377 23.877 L 295.459 23.877 L 295.459 1.367 L 362.793 1.367 L 362.793 23.877 L 346.777 23.877 L 346.777 14.307 L 336.572 14.307 L 336.572 62.012 L 344.385 62.012 L 344.385 75.391 L 312.695 75.391 Z M 42.285 75.391 L 42.285 62.012 L 49.658 62.012 L 46.338 51.367 L 23.584 51.367 L 20.264 62.012 L 28.076 62.012 L 28.076 75.391 L 0 75.391 L 0 62.012 L 5.518 62.012 L 25.684 1.367 L 45.264 1.367 L 64.99 62.012 L 70.361 62.012 L 70.361 75.391 L 42.285 75.391 Z M 77.002 75.391 L 77.002 62.012 L 84.57 62.012 L 84.57 14.795 L 77.002 14.795 L 77.002 1.27 L 113.086 1.367 A 24.676 24.676 0 0 1 119.039 2.064 A 21.337 21.337 0 0 1 122.29 3.15 A 22.53 22.53 0 0 1 129.061 7.561 A 21.586 21.586 0 0 1 129.492 7.984 Q 132.52 11.035 134.204 15.113 A 22.471 22.471 0 0 1 135.889 23.78 A 25.301 25.301 0 0 1 135.624 27.547 Q 135.321 29.556 134.671 31.222 A 13.339 13.339 0 0 1 134.009 32.666 A 14.758 14.758 0 0 1 128.662 38.33 A 18.773 18.773 0 0 1 133.112 42.243 A 17.253 17.253 0 0 1 134.448 44.117 A 13.866 13.866 0 0 1 136.222 48.729 A 19.219 19.219 0 0 1 136.572 52.491 A 25.459 25.459 0 0 1 135.895 58.453 A 22.029 22.029 0 0 1 134.839 61.719 A 22.651 22.651 0 0 1 130.922 68.089 A 21.396 21.396 0 0 1 130.103 68.97 A 21.083 21.083 0 0 1 122.998 73.706 A 22.829 22.829 0 0 1 114.896 75.381 A 26.225 26.225 0 0 1 114.16 75.391 L 77.002 75.391 Z M 168.555 75.342 A 33.518 33.518 0 0 0 178.174 76.709 A 33.768 33.768 0 0 0 187.817 75.342 A 34.699 34.699 0 0 0 196.411 71.485 Q 200.391 68.994 203.638 65.503 A 37.886 37.886 0 0 0 209.204 57.74 Q 211.523 53.467 212.793 48.56 A 40.485 40.485 0 0 0 214.063 38.379 Q 214.063 33.057 212.793 28.15 Q 211.523 23.242 209.204 18.97 A 37.886 37.886 0 0 0 203.638 11.206 Q 200.391 7.715 196.411 5.225 A 34.699 34.699 0 0 0 187.817 1.367 A 33.768 33.768 0 0 0 178.174 0 A 33.518 33.518 0 0 0 168.555 1.367 Q 163.965 2.735 159.985 5.225 Q 156.006 7.715 152.759 11.206 A 37.174 37.174 0 0 0 147.217 18.97 Q 144.922 23.242 143.652 28.15 Q 142.383 33.057 142.383 38.379 A 44.516 44.516 0 0 0 142.383 38.462 A 40.369 40.369 0 0 0 143.652 48.584 A 41.149 41.149 0 0 0 147.217 57.74 Q 149.512 62.012 152.759 65.503 Q 156.006 68.994 159.985 71.485 Q 163.965 73.975 168.555 75.342 Z M 178.174 61.377 A 17.117 17.117 0 0 0 184.09 60.369 A 16.058 16.058 0 0 0 185.962 59.546 A 18.875 18.875 0 0 0 192.041 54.566 A 22.76 22.76 0 0 0 195.484 48.584 A 26.522 26.522 0 0 0 195.972 47.242 A 27.649 27.649 0 0 0 197.357 39 A 31.241 31.241 0 0 0 197.363 38.379 A 28.244 28.244 0 0 0 196.392 30.903 A 26.077 26.077 0 0 0 195.947 29.444 A 24.325 24.325 0 0 0 193.458 24.166 A 21.595 21.595 0 0 0 191.968 22.095 A 19.226 19.226 0 0 0 185.889 17.115 A 16.389 16.389 0 0 0 178.436 15.285 A 19.113 19.113 0 0 0 178.174 15.284 A 16.748 16.748 0 0 0 172.03 16.401 A 15.962 15.962 0 0 0 170.459 17.115 Q 166.943 18.946 164.404 22.095 Q 161.865 25.244 160.425 29.444 A 27.12 27.12 0 0 0 158.993 37.642 A 30.743 30.743 0 0 0 158.984 38.379 A 27.226 27.226 0 0 0 160.127 46.322 A 25.544 25.544 0 0 0 160.425 47.242 A 25.029 25.029 0 0 0 162.994 52.605 A 22.216 22.216 0 0 0 164.404 54.566 A 18.96 18.96 0 0 0 170.459 59.546 A 16.389 16.389 0 0 0 177.912 61.375 A 19.113 19.113 0 0 0 178.174 61.377 Z M 113.086 44.776 L 100.781 44.776 L 100.781 62.012 L 113.086 62.012 A 5.162 5.162 0 0 0 115.747 61.28 A 7.338 7.338 0 0 0 117.896 59.351 A 9.327 9.327 0 0 0 119.005 57.429 A 11.181 11.181 0 0 0 119.336 56.568 A 10.211 10.211 0 0 0 119.873 53.272 Q 119.873 51.465 119.336 49.927 A 9.373 9.373 0 0 0 118.463 48.077 A 8.146 8.146 0 0 0 117.871 47.242 A 6.975 6.975 0 0 0 115.698 45.435 A 5.508 5.508 0 0 0 113.086 44.776 Z M 34.863 14.795 L 27.441 38.867 L 42.383 38.867 L 34.863 14.795 Z M 112.402 14.795 L 100.781 14.795 L 100.781 31.397 L 112.402 31.397 Q 113.77 31.397 114.99 30.713 A 7.109 7.109 0 0 0 117.114 28.882 A 9.54 9.54 0 0 0 118.555 26.294 Q 119.092 24.854 119.092 23.291 A 8.959 8.959 0 0 0 118.604 20.406 A 10.112 10.112 0 0 0 118.555 20.264 Q 118.018 18.75 117.114 17.53 A 7.698 7.698 0 0 0 115.216 15.698 A 7.334 7.334 0 0 0 114.99 15.552 A 4.831 4.831 0 0 0 112.402 14.795 Z"/></g></svg>