<svg width="516.602" height="76.71" viewBox="0 0 516.602 76.71" xmlns="http://www.w3.org/2000/svg"><g id="svgGroup" stroke-linecap="round" fill-rule="evenodd" font-size="9pt" stroke="#ffffff49" stroke-width="0.25mm" fill="#ffffff00" style="stroke:#ffffff49;stroke-width:0.25mm;fill:#ffffff00"><path d="M 204.053 14.796 L 204.053 1.368 L 232.178 1.368 L 232.178 14.796 L 226.173 14.796 L 226.173 75.392 L 209.962 75.392 L 179.151 27.54 L 179.151 62.013 L 185.352 62.013 L 185.352 75.392 L 157.276 75.392 L 157.276 62.013 L 163.38 62.013 L 163.38 14.796 L 157.374 14.796 L 157.374 1.368 L 179.737 1.368 L 210.352 49.854 L 210.352 14.796 L 204.053 14.796 Z M 252.882 75.392 L 252.882 62.013 L 260.548 62.013 L 260.548 14.308 L 251.563 14.308 L 251.563 23.878 L 235.645 23.878 L 235.645 1.368 L 302.979 1.368 L 302.979 23.878 L 286.964 23.878 L 286.964 14.308 L 276.758 14.308 L 276.758 62.013 L 284.571 62.013 L 284.571 75.392 L 252.882 75.392 Z M 466.505 75.392 L 466.505 62.013 L 474.171 62.013 L 474.171 14.308 L 465.186 14.308 L 465.186 23.878 L 449.268 23.878 L 449.268 1.368 L 516.602 1.368 L 516.602 23.878 L 500.587 23.878 L 500.587 14.308 L 490.382 14.308 L 490.382 62.013 L 498.194 62.013 L 498.194 75.392 L 466.505 75.392 Z M 65.87 23.878 L 50.782 23.878 A 42.781 42.781 0 0 0 49.206 21.759 Q 47.395 19.486 45.85 18.336 Q 43.653 16.7 41.114 15.992 A 19.697 19.697 0 0 0 35.879 15.284 A 21.844 21.844 0 0 0 35.792 15.284 A 16.244 16.244 0 0 0 28.174 17.115 A 19.226 19.226 0 0 0 22.095 22.096 A 23.591 23.591 0 0 0 18.603 28.015 A 27.494 27.494 0 0 0 18.067 29.42 A 26.48 26.48 0 0 0 16.604 37.953 A 29.83 29.83 0 0 0 16.602 38.282 A 27.682 27.682 0 0 0 17.535 45.541 A 25.405 25.405 0 0 0 18.043 47.193 A 24.826 24.826 0 0 0 20.525 52.41 A 21.849 21.849 0 0 0 22.022 54.493 A 19.1 19.1 0 0 0 28.077 59.449 A 16.389 16.389 0 0 0 35.53 61.278 A 19.113 19.113 0 0 0 35.792 61.28 Q 38.721 61.28 41.26 60.328 Q 43.799 59.376 45.875 57.813 A 19.001 19.001 0 0 0 49.512 54.225 A 18.106 18.106 0 0 0 51.533 50.963 A 16.288 16.288 0 0 0 51.954 50.001 L 67.676 54.395 A 31.238 31.238 0 0 1 63.233 63.258 Q 60.303 67.335 56.177 70.313 A 33.767 33.767 0 0 1 47.699 74.726 A 38.094 38.094 0 0 1 46.9 75.001 Q 41.749 76.71 35.792 76.71 A 33.518 33.518 0 0 1 26.173 75.343 Q 21.583 73.976 17.603 71.485 Q 13.624 68.995 10.377 65.479 Q 7.13 61.964 4.835 57.691 A 41.038 41.038 0 0 1 1.27 48.512 Q 0.001 43.604 0.001 38.282 A 40.317 40.317 0 0 1 1.982 25.564 A 37.938 37.938 0 0 1 2.784 23.365 A 39.026 39.026 0 0 1 9.805 11.864 A 37.311 37.311 0 0 1 10.401 11.207 A 35.786 35.786 0 0 1 21.754 3.004 A 33.143 33.143 0 0 1 35.792 0.001 A 40.443 40.443 0 0 1 40.028 0.21 Q 42.199 0.439 44.049 0.919 A 20.472 20.472 0 0 1 45.899 1.49 Q 50.001 2.979 54.932 7.374 L 65.87 7.374 L 65.87 23.878 Z M 441.505 23.878 L 426.417 23.878 A 42.781 42.781 0 0 0 424.84 21.759 Q 423.03 19.486 421.485 18.336 Q 419.288 16.7 416.749 15.992 A 19.697 19.697 0 0 0 411.513 15.284 A 21.844 21.844 0 0 0 411.426 15.284 A 16.244 16.244 0 0 0 403.809 17.115 A 19.226 19.226 0 0 0 397.73 22.096 A 23.591 23.591 0 0 0 394.238 28.015 A 27.494 27.494 0 0 0 393.702 29.42 A 26.48 26.48 0 0 0 392.239 37.953 A 29.83 29.83 0 0 0 392.237 38.282 A 27.682 27.682 0 0 0 393.17 45.541 A 25.405 25.405 0 0 0 393.677 47.193 A 24.826 24.826 0 0 0 396.16 52.41 A 21.849 21.849 0 0 0 397.657 54.493 A 19.1 19.1 0 0 0 403.712 59.449 A 16.389 16.389 0 0 0 411.165 61.278 A 19.113 19.113 0 0 0 411.426 61.28 Q 414.356 61.28 416.895 60.328 Q 419.434 59.376 421.509 57.813 A 19.001 19.001 0 0 0 425.147 54.225 A 18.106 18.106 0 0 0 427.167 50.963 A 16.288 16.288 0 0 0 427.589 50.001 L 443.311 54.395 A 31.238 31.238 0 0 1 438.868 63.258 Q 435.938 67.335 431.812 70.313 A 33.767 33.767 0 0 1 423.333 74.726 A 38.094 38.094 0 0 1 422.535 75.001 Q 417.383 76.71 411.426 76.71 A 33.518 33.518 0 0 1 401.807 75.343 Q 397.217 73.976 393.238 71.485 Q 389.258 68.995 386.011 65.479 Q 382.764 61.964 380.469 57.691 A 41.038 41.038 0 0 1 376.905 48.512 Q 375.635 43.604 375.635 38.282 A 40.317 40.317 0 0 1 377.617 25.564 A 37.938 37.938 0 0 1 378.419 23.365 A 39.026 39.026 0 0 1 385.44 11.864 A 37.311 37.311 0 0 1 386.036 11.207 A 35.786 35.786 0 0 1 397.388 3.004 A 33.143 33.143 0 0 1 411.426 0.001 A 40.443 40.443 0 0 1 415.663 0.21 Q 417.833 0.439 419.684 0.919 A 20.472 20.472 0 0 1 421.534 1.49 Q 425.635 2.979 430.567 7.374 L 441.505 7.374 L 441.505 23.878 Z M 343.214 75.392 L 343.214 62.013 L 350.587 62.013 L 347.266 51.368 L 324.512 51.368 L 321.192 62.013 L 329.005 62.013 L 329.005 75.392 L 300.928 75.392 L 300.928 62.013 L 306.446 62.013 L 326.612 1.368 L 346.192 1.368 L 365.919 62.013 L 371.29 62.013 L 371.29 75.392 L 343.214 75.392 Z M 102.051 75.343 A 33.518 33.518 0 0 0 111.671 76.71 A 33.768 33.768 0 0 0 121.314 75.343 A 34.699 34.699 0 0 0 129.908 71.485 Q 133.887 68.995 137.134 65.504 A 37.886 37.886 0 0 0 142.701 57.74 Q 145.02 53.468 146.29 48.561 A 40.485 40.485 0 0 0 147.559 38.38 Q 147.559 33.058 146.29 28.15 Q 145.02 23.243 142.701 18.971 A 37.886 37.886 0 0 0 137.134 11.207 Q 133.887 7.716 129.908 5.226 A 34.699 34.699 0 0 0 121.314 1.368 A 33.768 33.768 0 0 0 111.671 0.001 A 33.518 33.518 0 0 0 102.051 1.368 Q 97.462 2.735 93.482 5.226 Q 89.503 7.716 86.256 11.207 A 37.174 37.174 0 0 0 80.714 18.971 Q 78.419 23.243 77.149 28.15 Q 75.88 33.058 75.88 38.38 A 44.516 44.516 0 0 0 75.88 38.463 A 40.369 40.369 0 0 0 77.149 48.585 A 41.149 41.149 0 0 0 80.714 57.74 Q 83.008 62.013 86.256 65.504 Q 89.503 68.995 93.482 71.485 Q 97.462 73.976 102.051 75.343 Z M 111.671 61.378 A 17.117 17.117 0 0 0 117.586 60.369 A 16.058 16.058 0 0 0 119.459 59.547 A 18.875 18.875 0 0 0 125.538 54.566 A 22.76 22.76 0 0 0 128.981 48.584 A 26.522 26.522 0 0 0 129.468 47.242 A 27.649 27.649 0 0 0 130.854 39 A 31.241 31.241 0 0 0 130.86 38.38 A 28.244 28.244 0 0 0 129.889 30.904 A 26.077 26.077 0 0 0 129.444 29.444 A 24.325 24.325 0 0 0 126.955 24.167 A 21.595 21.595 0 0 0 125.465 22.096 A 19.226 19.226 0 0 0 119.385 17.115 A 16.389 16.389 0 0 0 111.932 15.286 A 19.113 19.113 0 0 0 111.671 15.284 A 16.748 16.748 0 0 0 105.527 16.402 A 15.962 15.962 0 0 0 103.956 17.115 Q 100.44 18.946 97.901 22.096 Q 95.362 25.245 93.922 29.444 A 27.12 27.12 0 0 0 92.49 37.643 A 30.743 30.743 0 0 0 92.481 38.38 A 27.226 27.226 0 0 0 93.624 46.323 A 25.544 25.544 0 0 0 93.922 47.242 A 25.029 25.029 0 0 0 96.49 52.606 A 22.216 22.216 0 0 0 97.901 54.566 A 18.96 18.96 0 0 0 103.956 59.547 A 16.389 16.389 0 0 0 111.409 61.376 A 19.113 19.113 0 0 0 111.671 61.378 Z M 335.792 14.796 L 328.37 38.868 L 343.311 38.868 L 335.792 14.796 Z"/></g></svg>