<svg width="565.674" height="77.735" viewBox="0 0 565.674 77.735" xmlns="http://www.w3.org/2000/svg"><g id="svgGroup" stroke-linecap="round" fill-rule="evenodd" font-size="9pt" stroke="#ffffff49" stroke-width="0.25mm" fill="#ffffff00" style="stroke:#ffffff49;stroke-width:0.25mm;fill:#ffffff00"><path d="M 168.066 16.944 L 168.066 2.197 L 226.953 2.197 L 226.953 27.442 L 211.035 27.442 L 211.035 16.944 L 192.041 16.944 L 192.041 31.543 L 206.738 31.543 L 206.738 45.703 L 192.041 45.703 L 192.041 62.842 L 211.035 62.842 L 211.035 49.707 L 226.953 49.707 L 226.953 76.221 L 168.066 76.221 L 168.066 62.842 L 175.83 62.842 L 175.83 16.944 L 168.066 16.944 Z M 506.787 16.944 L 506.787 2.197 L 565.674 2.197 L 565.674 27.442 L 549.756 27.442 L 549.756 16.944 L 530.762 16.944 L 530.762 31.543 L 545.459 31.543 L 545.459 45.703 L 530.762 45.703 L 530.762 62.842 L 549.756 62.842 L 549.756 49.707 L 565.674 49.707 L 565.674 76.221 L 506.787 76.221 L 506.787 62.842 L 514.551 62.842 L 514.551 16.944 L 506.787 16.944 Z M 271.045 27.344 L 271.045 23.047 A 8.165 8.165 0 0 0 269.849 19.824 A 9.543 9.543 0 0 0 267.407 17.212 Q 265.918 16.113 264.038 15.479 Q 262.158 14.844 260.107 14.844 A 15.578 15.578 0 0 0 257.777 15.012 A 13.198 13.198 0 0 0 256.641 15.235 A 9.485 9.485 0 0 0 254.965 15.803 A 7.697 7.697 0 0 0 253.833 16.431 A 5.974 5.974 0 0 0 251.929 18.506 A 5.453 5.453 0 0 0 251.338 20.186 A 7.426 7.426 0 0 0 251.221 21.533 A 8.224 8.224 0 0 0 251.333 22.937 Q 251.467 23.711 251.761 24.332 A 4.184 4.184 0 0 0 252.173 25.025 A 7.5 7.5 0 0 0 254.476 27.07 A 8.634 8.634 0 0 0 254.614 27.149 A 14.017 14.017 0 0 0 257.027 28.201 A 16.264 16.264 0 0 0 257.91 28.467 Q 259.717 28.955 261.426 29.541 L 274.854 34.033 A 21.464 21.464 0 0 1 280.078 36.719 A 17.933 17.933 0 0 1 284.302 40.869 A 19.062 19.062 0 0 1 286.606 45.084 A 22.48 22.48 0 0 1 287.109 46.485 A 20.826 20.826 0 0 1 287.962 50.5 A 27.087 27.087 0 0 1 288.135 53.613 A 25.343 25.343 0 0 1 287.362 59.965 A 22.04 22.04 0 0 1 286.157 63.428 A 22.108 22.108 0 0 1 280.615 71.045 A 24.512 24.512 0 0 1 274.186 75.138 A 29.323 29.323 0 0 1 272.07 75.977 A 30.716 30.716 0 0 1 265.071 77.527 A 38.18 38.18 0 0 1 261.035 77.735 A 33.883 33.883 0 0 1 254.924 77.199 A 30.054 30.054 0 0 1 253.003 76.782 A 27.473 27.473 0 0 1 247.499 74.776 A 24.726 24.726 0 0 1 246.094 74.024 Q 242.969 72.217 240.625 69.702 Q 238.281 67.188 236.963 64.014 L 231.934 64.014 L 231.934 49.317 L 249.609 49.317 L 249.609 52.344 A 11.924 11.924 0 0 0 249.907 55.05 A 10.335 10.335 0 0 0 250.317 56.397 Q 251.025 58.252 252.441 59.619 A 8.963 8.963 0 0 0 254.615 61.151 A 11.401 11.401 0 0 0 256.006 61.743 Q 258.02 62.453 260.678 62.497 A 21.415 21.415 0 0 0 261.035 62.5 Q 265.43 62.5 267.725 60.474 Q 270.02 58.447 270.02 54.834 A 7.062 7.062 0 0 0 269.889 53.44 Q 269.695 52.478 269.214 51.734 A 7.283 7.283 0 0 0 267.139 49.634 A 13.254 13.254 0 0 0 264.906 48.433 A 15.238 15.238 0 0 0 264.307 48.194 Q 262.744 47.608 261.23 47.119 L 250.049 43.506 Q 246.875 42.529 243.921 40.772 Q 240.967 39.014 238.696 36.377 A 20.049 20.049 0 0 1 235.572 31.391 A 23.329 23.329 0 0 1 235.083 30.2 Q 233.74 26.66 233.74 22.119 A 24.319 24.319 0 0 1 234.275 16.913 A 19.51 19.51 0 0 1 235.693 12.72 Q 237.646 8.594 241.162 5.762 A 23.373 23.373 0 0 1 247.107 2.311 A 28.318 28.318 0 0 1 249.512 1.465 A 34.008 34.008 0 0 1 256.256 0.173 A 41.807 41.807 0 0 1 260.107 0 A 34.438 34.438 0 0 1 265.388 0.39 A 28.499 28.499 0 0 1 268.506 1.05 Q 272.363 2.1 275.415 3.858 Q 278.467 5.615 280.591 7.886 A 19.753 19.753 0 0 1 282.651 10.476 A 15.868 15.868 0 0 1 283.838 12.598 L 288.721 12.598 L 288.721 27.344 L 271.045 27.344 Z M 362.842 15.625 L 362.842 2.197 L 394.531 2.197 L 394.531 15.625 L 388.33 15.625 L 398.242 32.617 L 408.74 15.625 L 401.66 15.625 L 401.66 2.197 L 433.35 2.197 L 433.35 15.625 L 427.881 15.625 L 405.859 45.508 L 405.859 62.842 L 414.844 62.842 L 414.844 76.221 L 381.836 76.221 L 381.836 62.842 L 390.039 62.842 L 390.039 45.313 L 369.336 15.625 L 362.842 15.625 Z M 308.936 76.221 L 308.936 62.842 L 316.602 62.842 L 316.602 15.137 L 307.617 15.137 L 307.617 24.707 L 291.699 24.707 L 291.699 2.197 L 359.033 2.197 L 359.033 24.707 L 343.018 24.707 L 343.018 15.137 L 332.813 15.137 L 332.813 62.842 L 340.625 62.842 L 340.625 76.221 L 308.936 76.221 Z M 105.273 17.041 L 105.273 2.197 L 162.549 2.197 L 162.549 27.442 L 146.68 27.442 L 146.68 17.041 L 129.15 17.041 L 129.15 32.617 L 144.336 32.617 L 144.336 46.826 L 129.15 46.826 L 129.15 62.842 L 136.963 62.842 L 136.963 76.221 L 105.273 76.221 L 105.273 62.842 L 112.939 62.842 L 112.939 17.041 L 105.273 17.041 Z M 0 15.625 L 0 2.197 L 31.689 2.197 L 31.689 15.625 L 23.877 15.625 L 23.877 62.842 L 39.99 62.842 A 2.296 2.296 0 0 0 40.965 62.62 A 2.88 2.88 0 0 0 41.235 62.476 A 3.97 3.97 0 0 0 42.31 61.524 A 5.575 5.575 0 0 0 43.066 60.254 Q 43.359 59.57 43.359 58.936 L 43.359 49.024 L 59.18 49.024 L 59.18 76.221 L 0 76.221 L 0 62.842 L 7.666 62.842 L 7.666 15.625 L 0 15.625 Z M 441.064 15.625 L 441.064 2.197 L 472.754 2.197 L 472.754 15.625 L 464.941 15.625 L 464.941 62.842 L 481.055 62.842 A 2.296 2.296 0 0 0 482.029 62.62 A 2.88 2.88 0 0 0 482.3 62.476 A 3.97 3.97 0 0 0 483.374 61.524 A 5.575 5.575 0 0 0 484.131 60.254 Q 484.424 59.57 484.424 58.936 L 484.424 49.024 L 500.244 49.024 L 500.244 76.221 L 441.064 76.221 L 441.064 62.842 L 448.73 62.842 L 448.73 15.625 L 441.064 15.625 Z M 65.723 15.576 L 65.723 2.197 L 97.412 2.197 L 97.412 15.576 L 89.6 15.576 L 89.6 62.842 L 97.412 62.842 L 97.412 76.221 L 65.723 76.221 L 65.723 62.842 L 73.389 62.842 L 73.389 15.576 L 65.723 15.576 Z"/></g></svg>