<svg width="608.545" height="76.71" viewBox="0 0 608.545 76.71" xmlns="http://www.w3.org/2000/svg"><g id="svgGroup" stroke-linecap="round" fill-rule="evenodd" font-size="9pt" stroke="#ffffff49" stroke-width="0.25mm" fill="#ffffff00" style="stroke:#ffffff49;stroke-width:0.25mm;fill:#ffffff00"><path d="M 147.461 14.795 L 147.461 1.367 L 186.621 1.367 A 32.735 32.735 0 0 1 192.029 1.795 A 25.135 25.135 0 0 1 196.826 3.076 A 25.283 25.283 0 0 1 201.403 5.344 A 20.643 20.643 0 0 1 204.395 7.642 A 19.581 19.581 0 0 1 209.106 14.283 Q 210.742 18.067 210.742 22.168 A 29.818 29.818 0 0 1 210.588 25.28 Q 210.421 26.872 210.072 28.255 A 17.373 17.373 0 0 1 209.937 28.76 A 17.387 17.387 0 0 1 208.483 32.354 A 15.269 15.269 0 0 1 207.593 33.789 A 17.096 17.096 0 0 1 203.809 37.671 Q 201.563 39.356 198.682 40.723 A 11.625 11.625 0 0 1 201.796 43.069 A 14.884 14.884 0 0 1 203.076 44.605 Q 204.728 46.87 205.681 50.292 A 27.275 27.275 0 0 1 205.957 51.367 L 208.447 60.987 L 214.551 60.987 L 214.648 75.391 L 193.164 75.391 L 190.234 57.813 Q 189.795 54.688 188.892 52.417 A 11.678 11.678 0 0 0 187.836 50.354 A 9.173 9.173 0 0 0 186.475 48.706 A 9.1 9.1 0 0 0 183.451 46.814 A 10.841 10.841 0 0 0 182.788 46.582 Q 180.615 45.899 177.637 45.899 L 171.338 45.899 L 171.338 62.012 L 178.125 62.012 L 178.125 75.391 L 147.461 75.391 L 147.461 62.012 L 155.127 62.012 L 155.127 14.795 L 147.461 14.795 Z M 234.863 75.391 L 234.863 62.012 L 242.529 62.012 L 242.529 14.307 L 233.545 14.307 L 233.545 23.877 L 217.627 23.877 L 217.627 1.367 L 284.961 1.367 L 284.961 23.877 L 268.945 23.877 L 268.945 14.307 L 258.74 14.307 L 258.74 62.012 L 266.553 62.012 L 266.553 75.391 L 234.863 75.391 Z M 291.992 16.211 L 291.992 1.367 L 349.268 1.367 L 349.268 26.612 L 333.398 26.612 L 333.398 16.211 L 315.869 16.211 L 315.869 31.787 L 331.055 31.787 L 331.055 45.996 L 315.869 45.996 L 315.869 62.012 L 323.682 62.012 L 323.682 75.391 L 291.992 75.391 L 291.992 62.012 L 299.658 62.012 L 299.658 16.211 L 291.992 16.211 Z M 433.887 14.795 L 433.887 1.367 L 465.576 1.367 L 465.576 14.795 L 457.764 14.795 L 457.764 62.012 L 473.877 62.012 A 2.296 2.296 0 0 0 474.851 61.79 A 2.88 2.88 0 0 0 475.122 61.646 A 3.97 3.97 0 0 0 476.196 60.694 A 5.575 5.575 0 0 0 476.953 59.424 Q 477.246 58.741 477.246 58.106 L 477.246 48.194 L 493.066 48.194 L 493.066 75.391 L 433.887 75.391 L 433.887 62.012 L 441.553 62.012 L 441.553 14.795 L 433.887 14.795 Z M 0 14.795 L 0 1.367 L 34.18 1.367 A 31.95 31.95 0 0 1 40.878 2.046 A 27.143 27.143 0 0 1 44.678 3.15 A 28.013 28.013 0 0 1 50.268 5.944 A 24.158 24.158 0 0 1 52.93 7.959 A 22.356 22.356 0 0 1 58.35 14.942 Q 60.303 18.897 60.303 23.194 A 30.865 30.865 0 0 1 59.473 30.44 A 27.685 27.685 0 0 1 58.765 32.886 A 20.656 20.656 0 0 1 54.004 40.723 Q 50.781 44.043 45.85 45.972 Q 41.226 47.78 35.015 47.893 A 45.915 45.915 0 0 1 34.18 47.901 L 23.877 47.901 L 23.877 62.012 L 30.664 62.012 L 30.664 75.391 L 0 75.391 L 0 62.012 L 7.666 62.012 L 7.666 14.795 L 0 14.795 Z M 499.609 14.746 L 499.609 1.367 L 531.299 1.367 L 531.299 14.746 L 523.486 14.746 L 523.486 62.012 L 531.299 62.012 L 531.299 75.391 L 499.609 75.391 L 499.609 62.012 L 507.275 62.012 L 507.275 14.746 L 499.609 14.746 Z M 92.236 75.342 A 33.518 33.518 0 0 0 101.855 76.709 A 33.768 33.768 0 0 0 111.499 75.342 A 34.699 34.699 0 0 0 120.093 71.485 Q 124.072 68.994 127.319 65.503 A 37.886 37.886 0 0 0 132.886 57.74 Q 135.205 53.467 136.475 48.56 A 40.485 40.485 0 0 0 137.744 38.379 Q 137.744 33.057 136.475 28.15 Q 135.205 23.242 132.886 18.97 A 37.886 37.886 0 0 0 127.319 11.206 Q 124.072 7.715 120.093 5.225 A 34.699 34.699 0 0 0 111.499 1.367 A 33.768 33.768 0 0 0 101.855 0 A 33.518 33.518 0 0 0 92.236 1.367 Q 87.646 2.735 83.667 5.225 Q 79.688 7.715 76.44 11.206 A 37.174 37.174 0 0 0 70.898 18.97 Q 68.604 23.242 67.334 28.15 Q 66.064 33.057 66.064 38.379 A 44.516 44.516 0 0 0 66.065 38.462 A 40.369 40.369 0 0 0 67.334 48.584 A 41.149 41.149 0 0 0 70.898 57.74 Q 73.193 62.012 76.44 65.503 Q 79.688 68.994 83.667 71.485 Q 87.646 73.975 92.236 75.342 Z M 378.662 75.342 A 33.518 33.518 0 0 0 388.281 76.709 A 33.768 33.768 0 0 0 397.925 75.342 A 34.699 34.699 0 0 0 406.519 71.485 Q 410.498 68.994 413.745 65.503 A 37.886 37.886 0 0 0 419.312 57.74 Q 421.631 53.467 422.9 48.56 A 40.485 40.485 0 0 0 424.17 38.379 Q 424.17 33.057 422.9 28.15 Q 421.631 23.242 419.312 18.97 A 37.886 37.886 0 0 0 413.745 11.206 Q 410.498 7.715 406.519 5.225 A 34.699 34.699 0 0 0 397.925 1.367 A 33.768 33.768 0 0 0 388.281 0 A 33.518 33.518 0 0 0 378.662 1.367 Q 374.072 2.735 370.093 5.225 Q 366.113 7.715 362.866 11.206 A 37.174 37.174 0 0 0 357.324 18.97 Q 355.029 23.242 353.76 28.15 Q 352.49 33.057 352.49 38.379 A 44.516 44.516 0 0 0 352.49 38.462 A 40.369 40.369 0 0 0 353.76 48.584 A 41.149 41.149 0 0 0 357.324 57.74 Q 359.619 62.012 362.866 65.503 Q 366.113 68.994 370.093 71.485 Q 374.072 73.975 378.662 75.342 Z M 563.037 75.342 A 33.518 33.518 0 0 0 572.656 76.709 A 33.768 33.768 0 0 0 582.3 75.342 A 34.699 34.699 0 0 0 590.894 71.485 Q 594.873 68.994 598.12 65.503 A 37.886 37.886 0 0 0 603.687 57.74 Q 606.006 53.467 607.275 48.56 A 40.485 40.485 0 0 0 608.545 38.379 Q 608.545 33.057 607.275 28.15 Q 606.006 23.242 603.687 18.97 A 37.886 37.886 0 0 0 598.12 11.206 Q 594.873 7.715 590.894 5.225 A 34.699 34.699 0 0 0 582.3 1.367 A 33.768 33.768 0 0 0 572.656 0 A 33.518 33.518 0 0 0 563.037 1.367 Q 558.447 2.735 554.468 5.225 Q 550.488 7.715 547.241 11.206 A 37.174 37.174 0 0 0 541.699 18.97 Q 539.404 23.242 538.135 28.15 Q 536.865 33.057 536.865 38.379 A 44.516 44.516 0 0 0 536.865 38.462 A 40.369 40.369 0 0 0 538.135 48.584 A 41.149 41.149 0 0 0 541.699 57.74 Q 543.994 62.012 547.241 65.503 Q 550.488 68.994 554.468 71.485 Q 558.447 73.975 563.037 75.342 Z M 101.855 61.377 A 17.117 17.117 0 0 0 107.771 60.369 A 16.058 16.058 0 0 0 109.644 59.546 A 18.875 18.875 0 0 0 115.723 54.566 A 22.76 22.76 0 0 0 119.166 48.584 A 26.522 26.522 0 0 0 119.653 47.242 A 27.649 27.649 0 0 0 121.039 39 A 31.241 31.241 0 0 0 121.045 38.379 A 28.244 28.244 0 0 0 120.074 30.903 A 26.077 26.077 0 0 0 119.629 29.444 A 24.325 24.325 0 0 0 117.14 24.166 A 21.595 21.595 0 0 0 115.649 22.095 A 19.226 19.226 0 0 0 109.57 17.115 A 16.389 16.389 0 0 0 102.117 15.285 A 19.113 19.113 0 0 0 101.855 15.284 A 16.748 16.748 0 0 0 95.711 16.401 A 15.962 15.962 0 0 0 94.141 17.115 Q 90.625 18.946 88.086 22.095 Q 85.547 25.244 84.106 29.444 A 27.12 27.12 0 0 0 82.675 37.642 A 30.743 30.743 0 0 0 82.666 38.379 A 27.226 27.226 0 0 0 83.809 46.322 A 25.544 25.544 0 0 0 84.106 47.242 A 25.029 25.029 0 0 0 86.675 52.605 A 22.216 22.216 0 0 0 88.086 54.566 A 18.96 18.96 0 0 0 94.141 59.546 A 16.389 16.389 0 0 0 101.594 61.375 A 19.113 19.113 0 0 0 101.855 61.377 Z M 388.281 61.377 A 17.117 17.117 0 0 0 394.197 60.369 A 16.058 16.058 0 0 0 396.069 59.546 A 18.875 18.875 0 0 0 402.148 54.566 A 22.76 22.76 0 0 0 405.592 48.584 A 26.522 26.522 0 0 0 406.079 47.242 A 27.649 27.649 0 0 0 407.465 39 A 31.241 31.241 0 0 0 407.471 38.379 A 28.244 28.244 0 0 0 406.5 30.903 A 26.077 26.077 0 0 0 406.055 29.444 A 24.325 24.325 0 0 0 403.565 24.166 A 21.595 21.595 0 0 0 402.075 22.095 A 19.226 19.226 0 0 0 395.996 17.115 A 16.389 16.389 0 0 0 388.543 15.285 A 19.113 19.113 0 0 0 388.281 15.284 A 16.748 16.748 0 0 0 382.137 16.401 A 15.962 15.962 0 0 0 380.566 17.115 Q 377.051 18.946 374.512 22.095 Q 371.973 25.244 370.532 29.444 A 27.12 27.12 0 0 0 369.101 37.642 A 30.743 30.743 0 0 0 369.092 38.379 A 27.226 27.226 0 0 0 370.234 46.322 A 25.544 25.544 0 0 0 370.532 47.242 A 25.029 25.029 0 0 0 373.101 52.605 A 22.216 22.216 0 0 0 374.512 54.566 A 18.96 18.96 0 0 0 380.566 59.546 A 16.389 16.389 0 0 0 388.019 61.375 A 19.113 19.113 0 0 0 388.281 61.377 Z M 572.656 61.377 A 17.117 17.117 0 0 0 578.572 60.369 A 16.058 16.058 0 0 0 580.444 59.546 A 18.875 18.875 0 0 0 586.523 54.566 A 22.76 22.76 0 0 0 589.967 48.584 A 26.522 26.522 0 0 0 590.454 47.242 A 27.649 27.649 0 0 0 591.84 39 A 31.241 31.241 0 0 0 591.846 38.379 A 28.244 28.244 0 0 0 590.875 30.903 A 26.077 26.077 0 0 0 590.43 29.444 A 24.325 24.325 0 0 0 587.94 24.166 A 21.595 21.595 0 0 0 586.45 22.095 A 19.226 19.226 0 0 0 580.371 17.115 A 16.389 16.389 0 0 0 572.918 15.285 A 19.113 19.113 0 0 0 572.656 15.284 A 16.748 16.748 0 0 0 566.512 16.401 A 15.962 15.962 0 0 0 564.941 17.115 Q 561.426 18.946 558.887 22.095 Q 556.348 25.244 554.907 29.444 A 27.12 27.12 0 0 0 553.476 37.642 A 30.743 30.743 0 0 0 553.467 38.379 A 27.226 27.226 0 0 0 554.609 46.322 A 25.544 25.544 0 0 0 554.907 47.242 A 25.029 25.029 0 0 0 557.476 52.605 A 22.216 22.216 0 0 0 558.887 54.566 A 18.96 18.96 0 0 0 564.941 59.546 A 16.389 16.389 0 0 0 572.394 61.375 A 19.113 19.113 0 0 0 572.656 61.377 Z M 181.055 14.795 L 171.338 14.795 L 171.338 32.715 L 181.055 32.715 A 25.964 25.964 0 0 0 183.698 32.587 A 19.217 19.217 0 0 0 186.06 32.202 A 12.501 12.501 0 0 0 188.123 31.543 A 9.685 9.685 0 0 0 189.868 30.591 Q 191.455 29.492 192.31 27.832 Q 193.164 26.172 193.164 23.877 Q 193.164 19.58 190.088 17.188 Q 187.012 14.795 181.055 14.795 Z M 30.566 14.795 L 23.877 14.795 L 23.877 34.668 L 30.566 34.668 A 21.426 21.426 0 0 0 34.113 34.393 Q 37.254 33.865 39.404 32.325 Q 42.676 29.981 42.676 24.903 A 11.706 11.706 0 0 0 42.261 21.701 A 8.594 8.594 0 0 0 39.6 17.481 A 9.808 9.808 0 0 0 36.22 15.598 Q 33.824 14.795 30.566 14.795 Z"/></g></svg>