<svg width="277.969" height="91.173" viewBox="0 0 277.969 91.173" xmlns="http://www.w3.org/2000/svg"><g id="svgGroup" stroke-linecap="round" fill-rule="evenodd" font-size="9pt" stroke="#ffffff49" stroke-width="0.25mm" fill="#ffffff00" style="stroke:#ffffff49;stroke-width:0.25mm;fill:#ffffff00"><path d="M 58.008 4.688 L 72.012 65.391 L 83.496 4.688 L 101.016 4.688 L 82.09 90 L 64.395 90 L 50.508 32.93 L 36.621 90 L 18.926 90 L 0 4.688 L 17.52 4.688 L 29.063 65.273 L 43.125 4.688 L 58.008 4.688 Z M 258.516 90 L 242.227 64.57 L 236.133 70.664 L 236.133 90 L 219.199 90 L 219.199 0 L 236.133 0 L 236.133 49.863 L 239.414 45.645 L 255.645 26.602 L 275.977 26.602 L 253.066 53.027 L 277.969 90 L 258.516 90 Z M 211.289 26.191 L 211.055 42.48 A 59.461 59.461 0 0 0 208.577 42.195 Q 206.609 42.012 204.961 42.012 Q 199.363 42.012 196.012 44.219 A 10.049 10.049 0 0 0 192.363 48.516 L 192.363 90 L 175.43 90 L 175.43 26.602 L 191.426 26.602 L 191.895 34.16 Q 196.992 25.43 206.016 25.43 A 18.422 18.422 0 0 1 209.877 25.823 A 16.309 16.309 0 0 1 211.289 26.191 Z M 104.941 58.477 L 104.941 57.715 A 41.846 41.846 0 0 1 105.959 48.303 A 33.983 33.983 0 0 1 108.574 40.898 A 26.594 26.594 0 0 1 119.033 29.473 A 28.898 28.898 0 0 1 130.244 25.715 A 36.732 36.732 0 0 1 134.883 25.43 A 34.277 34.277 0 0 1 144.53 26.726 A 26.832 26.832 0 0 1 155.83 33.281 A 28.8 28.8 0 0 1 163.596 46.736 A 40.849 40.849 0 0 1 164.883 54.609 L 165 58.945 A 42.392 42.392 0 0 1 163.856 69.07 A 29.615 29.615 0 0 1 156.855 82.354 A 26.955 26.955 0 0 1 140.143 90.835 A 38.037 38.037 0 0 1 135 91.172 A 34.572 34.572 0 0 1 125.224 89.857 A 26.402 26.402 0 0 1 113.115 82.383 A 29.414 29.414 0 0 1 106.139 69.123 Q 104.941 64.264 104.941 58.477 Z M 123.282 68.799 A 15.587 15.587 0 0 0 125.273 72.744 A 10.904 10.904 0 0 0 133.232 77.42 A 15.225 15.225 0 0 0 135 77.52 A 12.853 12.853 0 0 0 139.395 76.8 A 11.042 11.042 0 0 0 144.609 72.803 A 14.459 14.459 0 0 0 146.578 68.892 Q 147.863 65.118 148.039 59.53 A 57.786 57.786 0 0 0 148.066 57.715 A 36.62 36.62 0 0 0 147.729 52.574 Q 146.986 47.347 144.609 44.004 A 11.005 11.005 0 0 0 136.613 39.239 A 14.744 14.744 0 0 0 134.883 39.141 A 12.706 12.706 0 0 0 130.5 39.864 A 10.869 10.869 0 0 0 125.273 43.975 A 15.346 15.346 0 0 0 123.304 48.029 Q 122.017 51.94 121.889 57.658 A 57.466 57.466 0 0 0 121.875 58.945 Q 121.875 64.752 123.282 68.799 Z" vector-effect="non-scaling-stroke"/></g></svg>