<?xml version="1.0" encoding="UTF-8" standalone="no"?>
<!DOCTYPE svg PUBLIC "-//W3C//DTD SVG 1.1//EN" "http://www.w3.org/Graphics/SVG/1.1/DTD/svg11.dtd">
<svg width="100%" height="100%" viewBox="0 0 250 250" version="1.1" xmlns="http://www.w3.org/2000/svg" xmlns:xlink="http://www.w3.org/1999/xlink" xml:space="preserve" xmlns:serif="http://www.serif.com/" style="fill-rule:evenodd;clip-rule:evenodd;stroke-linecap:round;stroke-linejoin:round;stroke-miterlimit:1.5;">
    <g id="Circle-Bottom" serif:id="Circle Bottom" transform="matrix(-0.810244,-0.551722,0.551722,-0.810244,158.938,336.06)">
        <path d="M40.214,152.349C40.214,91.723 89.434,42.502 150.06,42.502C210.686,42.502 259.906,91.723 259.906,152.349" style="fill:none;stroke:#FFFFFF;stroke-width:10.34px;"/>
    </g>
    <g id="Circle-Top" serif:id="Circle Top" transform="matrix(-0.810244,-0.551722,0.551722,-0.810244,167.326,321.988)">
        <path d="M259.906,152.349C259.906,212.974 210.686,262.195 150.06,262.195C89.434,262.195 40.214,212.974 40.214,152.349" style="fill:none;stroke:#FFFFFF;stroke-width:10.34px;"/>
    </g>
    <g id="B-and-N" serif:id="B and N" transform="matrix(0.710712,0,0,0.710712,34.1055,34.5475)">
        <g id="B" transform="matrix(1.28939,0,0,1.39904,-12.0316,-59.5861)">
            <path d="M40.43,111.126L40.432,141.87C40.432,141.87 39.124,181.321 76.613,181.321C114.102,181.321 114.102,150.371 114.102,130.318C114.102,110.266 135.68,105.471 144.834,105.471C153.989,105.471 175.349,109.438 175.349,125" style="fill:none;stroke:#FFFFFF;stroke-width:9.09px;"/>
        </g>
        <g transform="matrix(1.40704,0,0,1.40704,-47.9878,-48.6097)">
            <path d="M186.241,116.489C186.241,116.489 184.182,190.445 218.837,177.076" style="fill:none;stroke:#FFFFFF;stroke-width:8.75px;"/>
        </g>
        <g transform="matrix(1.40704,0,0,1.40704,-47.9878,-48.6097)">
            <path d="M62.6,105.021C62.6,105.021 63.781,66.816 32.813,68.49" style="fill:none;stroke:#FFFFFF;stroke-width:8.75px;"/>
        </g>
        <g transform="matrix(0.966431,0,0,1,3.35325,2.37096)">
            <path d="M38.016,112.025C38.016,112.025 39.199,105.94 44.332,99.309C50.581,91.237 62.685,82.356 85.637,82.662C113.504,83.034 119.151,94.56 125,100.409" style="fill:none;stroke:#FFFFFF;stroke-width:12.44px;"/>
        </g>
    </g>
</svg>
