<?xml version="1.0" encoding="utf-8"?>
<svg id="master-artboard" viewBox="0 0 783.2994384765625 491.2648010253906" version="1.1" xmlns="http://www.w3.org/2000/svg" x="0px" y="0px" style="enable-background:new 0 0 1400 980;" width="783.2994384765625px" height="491.2648010253906px"><defs><linearGradient id="gradient-0" gradientUnits="objectBoundingBox" x1="0.5" y1="0" x2="0.5" y2="1">
                <stop offset="0" style="stop-color: #ffffff"/>
                <stop offset="1" style="stop-color: #cccccc"/>
              </linearGradient></defs><rect id="ee-background" x="0" y="0" width="783.2994384765625" height="491.2648010253906" style="fill: rgb(255, 255, 255); fill-opacity: 0; pointer-events: none;"/>


<g transform="matrix(3.9200003147125244, 0, 0, 3.9200003147125244, -118.39319849014282, -198.88586616516113)"><g id="B-and-N" transform="matrix(0.7107120156288147, 0, 0, 0.7107120156288147, 38.4318482542036, 25.108193730441414)">
        <g id="B" transform="matrix(1.28939,0,0,1.39904,-12.0316,-59.5861)">
            <path d="M40.43,111.126L40.432,141.87C40.432,141.87 39.124,181.321 76.613,181.321C114.102,181.321 114.102,150.371 114.102,130.318C114.102,110.266 135.68,105.471 144.834,105.471C153.989,105.471 175.349,109.438 175.349,125" style="fill:none;stroke:#FFFFFF;stroke-width:9.09px;"/>
        </g>
        <g transform="matrix(1.4070399999618532, 0, 0, 1.4070399999618532, -47.987802060123485, -50.40439987182617)">
            <path d="M 185.84288293457033 116.88710180664063 C 185.84288293457033 116.88710180664063 183.7838829345703 190.84310180664062 218.4388829345703 177.47410180664062" style="fill:none;stroke:#FFFFFF;stroke-width:8.75px;" transform="matrix(0.9637199640274048, -0.014757764525711535, 0.014757764525711535, 0.9637199640274048, 5.33051558173802, 7.702572345733643)"/>
        </g>
        <g transform="matrix(1.40704,0,0,1.40704,-47.9878,-48.6097)">
            <path d="M62.6,105.021C62.6,105.021 63.781,66.816 32.813,68.49" style="fill:none;stroke:#FFFFFF;stroke-width:8.75px;"/>
        </g>
        <g transform="matrix(0.966431,0,0,1,3.35325,2.37096)">
            <path d="M38.016,112.025C38.016,112.025 39.199,105.94 44.332,99.309C50.581,91.237 62.685,82.356 85.637,82.662C113.504,83.034 119.151,94.56 125,100.409" style="fill:none;stroke:#FFFFFF;stroke-width:12.44px;"/>
        </g>
    </g></g></svg>