<svg width="383.2" height="80.701" viewBox="0 0 383.2 80.701" xmlns="http://www.w3.org/2000/svg"><g id="svgGroup" stroke-linecap="round" fill-rule="evenodd" font-size="9pt" stroke="#ffffff" stroke-width="0.25mm" fill="#ffffff" style="stroke:#ffffff;stroke-width:0.25mm;fill:#ffffff"><path d="M 216.627 75.709 A 185.029 185.029 0 0 0 215.3 80.701 A 4.297 4.297 0 0 0 217.526 80.064 A 6.392 6.392 0 0 0 218.7 79.151 A 7.496 7.496 0 0 0 219.325 78.458 Q 220.647 76.81 222.1 73.501 Q 223.9 69.401 226.25 61.851 A 447.866 447.866 0 0 0 226.758 60.209 Q 228.959 53.04 232 42.351 A 3210.802 3210.802 0 0 0 234.262 34.359 Q 235.461 30.103 236.797 25.323 A 6625.458 6625.458 0 0 0 240.2 13.101 Q 240.7 16.301 241.4 21.151 Q 242.1 26.001 242.95 31.801 Q 243.8 37.601 244.7 43.651 Q 245.6 49.701 246.45 55.301 Q 247.3 60.901 248.05 65.451 Q 248.8 70.001 249.3 72.601 A 24.719 24.719 0 0 0 249.407 73.165 Q 250.225 77.216 252.05 78.901 A 6.529 6.529 0 0 0 254.812 80.415 A 8.71 8.71 0 0 0 257.1 80.701 A 38.791 38.791 0 0 1 257.102 80.615 Q 257.211 76.733 258.15 70.651 Q 259.1 64.501 260.75 57.001 Q 262.4 49.501 264.5 41.451 Q 266.6 33.401 268.8 25.651 Q 271 17.901 273.15 11.251 A 417.775 417.775 0 0 1 274.45 7.295 Q 275.078 5.417 275.662 3.739 A 209.45 209.45 0 0 1 277 0.001 A 5.1 5.1 0 0 0 274.467 0.669 A 6.763 6.763 0 0 0 273 1.801 A 21.228 21.228 0 0 0 272.652 2.157 Q 271.672 3.184 271.14 4.039 A 5.141 5.141 0 0 0 270.7 4.901 Q 270.3 5.801 269.15 9.251 A 169.746 169.746 0 0 0 269.123 9.333 Q 267.982 12.762 266.45 17.851 Q 264.9 23.001 263.1 29.151 Q 261.3 35.301 259.65 41.751 A 515.161 515.161 0 0 0 258.844 44.944 A 452.433 452.433 0 0 0 256.65 54.151 A 198.694 198.694 0 0 0 256.283 55.799 Q 255.752 58.235 255.337 60.449 A 117.661 117.661 0 0 0 254.6 64.801 Q 254.3 63.001 253.944 60.469 A 325.099 325.099 0 0 1 253.7 58.701 Q 253.2 55.001 252.6 50.551 Q 252 46.101 251.4 41.151 Q 250.8 36.201 250.2 31.201 A 495.008 495.008 0 0 0 250.024 29.707 A 448.956 448.956 0 0 0 248.7 19.601 Q 247.9 14.001 246.7 9.551 Q 245.5 5.101 243.55 2.551 Q 241.6 0.001 238.6 0.001 A 10.428 10.428 0 0 0 237.59 0.051 Q 235.109 0.292 232.25 1.701 A 25.56 25.56 0 0 0 230.331 2.752 A 29.03 29.03 0 0 0 225.7 6.251 A 30.416 30.416 0 0 0 225.129 6.79 A 26.986 26.986 0 0 0 220.6 12.501 A 16.101 16.101 0 0 0 219.546 14.626 A 12.387 12.387 0 0 0 218.6 19.301 A 7.818 7.818 0 0 0 218.652 20.209 A 5.937 5.937 0 0 0 219.95 23.351 Q 221.3 25.001 224.6 25.001 Q 224.319 24.157 224.196 23.155 A 13.586 13.586 0 0 1 224.1 21.501 A 13.63 13.63 0 0 1 224.121 20.751 Q 224.182 19.649 224.417 18.421 A 25.115 25.115 0 0 1 225 16.051 Q 225.9 13.001 227.45 10.201 A 19.378 19.378 0 0 1 228.396 8.661 A 15.887 15.887 0 0 1 231.15 5.551 A 8.834 8.834 0 0 1 232.449 4.615 A 6.353 6.353 0 0 1 235.7 3.701 Q 236.5 3.701 236.85 4.351 A 2.456 2.456 0 0 1 236.979 4.632 Q 237.096 4.936 237.151 5.302 A 4.7 4.7 0 0 1 237.2 6.001 A 10.613 10.613 0 0 1 237.152 6.992 A 13.245 13.245 0 0 1 236.95 8.351 A 32.024 32.024 0 0 1 236.946 8.371 Q 236.699 9.605 236.5 10.101 Q 233.688 19.663 231.305 27.624 A 2408.982 2408.982 0 0 1 228.6 36.601 Q 225.2 47.801 222.65 55.951 Q 220.1 64.101 218.3 70.001 Q 217.386 72.997 216.627 75.709 Z M 8.073 80.538 A 26.16 26.16 0 0 0 11.1 80.701 Q 13.631 80.701 16.542 80.337 A 64.669 64.669 0 0 0 21.3 79.551 A 59.461 59.461 0 0 0 23.441 79.077 A 66.032 66.032 0 0 0 32.8 76.051 Q 38.6 73.701 43.5 70.201 A 33.953 33.953 0 0 0 44.714 69.293 A 29.24 29.24 0 0 0 51.4 62.001 Q 54.4 57.301 54.4 51.501 Q 54.4 49.101 53.6 46.501 A 10.606 10.606 0 0 0 52.21 43.655 A 14.585 14.585 0 0 0 50.45 41.551 Q 48.1 39.201 43.55 37.501 Q 40.564 36.385 36.351 35.829 A 62.034 62.034 0 0 0 31.6 35.401 A 46.48 46.48 0 0 0 32.577 35.24 A 50.895 50.895 0 0 0 39.5 33.501 Q 43.5 32.201 46.9 29.951 Q 50.3 27.701 52.4 24.251 A 13.923 13.923 0 0 0 54.105 19.877 A 19.056 19.056 0 0 0 54.5 15.901 A 21.889 21.889 0 0 0 54.466 14.666 Q 54.221 10.318 52.2 7.551 Q 49.9 4.401 46.3 2.751 Q 42.7 1.101 38.7 0.551 Q 34.7 0.001 31.4 0.001 Q 23.6 0.001 18.15 1.701 Q 12.7 3.401 7.7 5.501 A 0.892 0.892 0 0 0 7.71 5.634 Q 7.758 5.948 8.024 6.316 A 3.635 3.635 0 0 0 8.3 6.651 Q 8.9 7.301 9.65 7.751 A 5.545 5.545 0 0 0 9.784 7.829 Q 10.201 8.063 10.536 8.15 A 1.459 1.459 0 0 0 10.9 8.201 A 1.109 1.109 0 0 0 11.031 8.192 Q 11.571 8.128 12.543 7.56 A 15.04 15.04 0 0 0 13.2 7.151 A 16.022 16.022 0 0 1 13.349 7.054 Q 14.412 6.373 15.991 5.589 A 55.581 55.581 0 0 1 17.65 4.801 Q 20.5 3.501 24.7 2.801 A 121.088 121.088 0 0 0 24.532 3.131 Q 22.012 8.113 19.35 14.501 Q 16.6 21.101 14 28.001 Q 11.4 34.901 9.25 41.201 A 795.373 795.373 0 0 0 7.97 44.982 Q 7.362 46.794 6.817 48.451 A 443.067 443.067 0 0 0 5.6 52.201 Q 4.475 55.726 3.856 57.732 A 161.284 161.284 0 0 0 3.5 58.901 Q 3.1 60.201 2.6 61.801 Q 2.303 62.751 2.183 63.56 A 7.078 7.078 0 0 0 2.1 64.601 A 4.052 4.052 0 0 0 2.736 66.822 A 5.046 5.046 0 0 0 3.8 68.001 A 5.916 5.916 0 0 0 5.932 69.123 A 7.378 7.378 0 0 0 8 69.401 A 541.622 541.622 0 0 0 8.072 69.16 A 588.201 588.201 0 0 0 12.5 53.501 Q 14.7 45.301 17 37.201 Q 18.7 37.201 20.65 37.151 Q 22.6 37.101 24.5 37.101 Q 28.8 37.101 33.2 37.551 A 40.72 40.72 0 0 1 35.624 37.871 A 34.381 34.381 0 0 1 41.35 39.301 Q 45.1 40.601 47.4 43.101 A 8.405 8.405 0 0 1 49.377 46.851 A 11.894 11.894 0 0 1 49.7 49.701 A 13.859 13.859 0 0 1 48.855 54.445 A 17.429 17.429 0 0 1 46.75 58.451 A 24.784 24.784 0 0 1 42.872 62.786 A 33.943 33.943 0 0 1 38.45 66.101 A 39.512 39.512 0 0 1 32.81 69.054 A 51.565 51.565 0 0 1 25.8 71.451 Q 18.5 73.401 9.9 73.401 A 96.8 96.8 0 0 1 9.171 73.398 Q 5.845 73.373 4.066 73.113 A 8.797 8.797 0 0 1 3 72.901 Q 1.636 72.522 0.904 72.43 A 3.312 3.312 0 0 0 0.5 72.401 Q 0.273 72.401 0.149 72.463 A 0.249 0.249 0 0 0 0 72.701 Q 0 74.112 0.302 75.259 A 5.941 5.941 0 0 0 2.8 78.851 A 7.586 7.586 0 0 0 3.012 78.985 Q 4.943 80.172 8.073 80.538 Z M 104.5 55.801 L 105.5 56.801 A 37.287 37.287 0 0 1 102.046 63.611 A 32.548 32.548 0 0 1 100.1 66.301 Q 96.8 70.401 93.05 72.701 A 17.14 17.14 0 0 1 89.913 74.232 A 12.358 12.358 0 0 1 85.7 75.001 A 9.836 9.836 0 0 1 83.627 74.796 Q 82.349 74.521 81.401 73.872 A 5.25 5.25 0 0 1 80.25 72.801 A 8.161 8.161 0 0 1 78.898 70.388 A 7.247 7.247 0 0 1 78.5 68.001 A 8.603 8.603 0 0 1 78.524 67.384 Q 78.549 67.037 78.6 66.651 Q 78.7 65.901 78.8 65.101 Q 75.981 68.903 73.485 71.459 A 30.925 30.925 0 0 1 70.95 73.801 A 14.686 14.686 0 0 1 68.267 75.568 Q 66.013 76.701 63.7 76.701 Q 60.6 76.701 58.45 74.651 A 6.384 6.384 0 0 1 56.821 72.014 Q 56.479 70.999 56.362 69.76 A 14.414 14.414 0 0 1 56.3 68.401 A 18.649 18.649 0 0 1 56.752 64.42 Q 57.144 62.624 57.877 60.711 A 30.579 30.579 0 0 1 57.9 60.651 A 37.798 37.798 0 0 1 60.956 54.514 A 44.377 44.377 0 0 1 62.3 52.451 Q 65.1 48.401 68.65 45.051 A 33.55 33.55 0 0 1 73.721 41.082 A 29.188 29.188 0 0 1 76.15 39.701 A 19.076 19.076 0 0 1 80.333 38.14 A 15.733 15.733 0 0 1 84 37.701 A 12.227 12.227 0 0 1 87.046 38.062 A 9.203 9.203 0 0 1 90.5 39.751 A 6.51 6.51 0 0 1 93.069 44.473 A 8.351 8.351 0 0 1 93.1 45.201 A 7.213 7.213 0 0 1 93.01 46.383 Q 92.752 47.933 91.75 48.601 Q 90.596 49.37 88.82 49.482 A 9.891 9.891 0 0 1 88.2 49.501 A 18.324 18.324 0 0 0 88.409 48.553 A 23.066 23.066 0 0 0 88.55 47.751 Q 88.7 46.801 88.7 46.001 A 8.048 8.048 0 0 0 88.466 44.018 A 6.315 6.315 0 0 0 87.6 42.051 A 3.459 3.459 0 0 0 85.73 40.673 Q 84.897 40.401 83.8 40.401 A 8.865 8.865 0 0 0 80.529 41.052 Q 79.399 41.498 78.253 42.249 A 15.426 15.426 0 0 0 78.1 42.351 A 23.691 23.691 0 0 0 74.945 44.914 A 31.64 31.64 0 0 0 72.5 47.551 Q 69.8 50.801 67.7 54.601 A 45.316 45.316 0 0 0 65.285 59.662 A 38.5 38.5 0 0 0 64.4 62.101 A 28.274 28.274 0 0 0 63.623 64.975 Q 63.319 66.415 63.234 67.71 A 15.035 15.035 0 0 0 63.2 68.701 Q 63.2 72.494 65.754 72.598 A 3.589 3.589 0 0 0 65.9 72.601 Q 68.2 72.601 70.9 70.451 A 33.59 33.59 0 0 0 73.464 68.171 Q 74.741 66.922 76.049 65.417 A 56.926 56.926 0 0 0 76.45 64.951 Q 79.3 61.601 81.9 58.001 Q 84.5 54.401 86.5 51.401 A 9.739 9.739 0 0 1 86.629 51.212 Q 86.866 50.873 86.965 50.813 A 0.072 0.072 0 0 1 87 50.801 A 6.992 6.992 0 0 1 87.409 50.883 Q 87.865 50.987 88.464 51.174 A 22.651 22.651 0 0 1 88.55 51.201 A 6.466 6.466 0 0 1 89.534 51.598 A 5.186 5.186 0 0 1 90.2 52.001 A 1.808 1.808 0 0 1 90.627 52.418 A 1.48 1.48 0 0 1 90.9 53.301 A 2.51 2.51 0 0 1 90.821 53.892 Q 90.676 54.485 90.266 55.269 A 12.368 12.368 0 0 1 90 55.751 A 145.901 145.901 0 0 0 89.113 57.303 Q 88.585 58.238 88 59.301 Q 86.9 61.301 86 63.351 Q 85.132 65.329 85.101 67.074 A 7.254 7.254 0 0 0 85.1 67.201 A 5.859 5.859 0 0 0 85.628 69.605 A 7.159 7.159 0 0 0 85.9 70.151 A 2.722 2.722 0 0 0 86.87 71.191 Q 87.386 71.505 88.067 71.578 A 4.039 4.039 0 0 0 88.5 71.601 A 5.135 5.135 0 0 0 90.253 71.252 Q 92.506 70.428 95.6 67.651 A 31.332 31.332 0 0 0 98.845 64.217 Q 100.38 62.348 101.928 60.006 A 74.771 74.771 0 0 0 104.5 55.801 Z M 186.7 55.801 L 188.2 56.601 A 68.426 68.426 0 0 1 184.968 62.7 Q 182.364 67.034 179.5 70.051 Q 175.495 74.269 170.982 74.892 A 11.54 11.54 0 0 1 169.4 75.001 A 9.816 9.816 0 0 1 167.063 74.741 A 5.995 5.995 0 0 1 163.25 72.051 Q 161.477 69.224 161.403 65.065 A 20.503 20.503 0 0 1 161.4 64.701 Q 161.4 61.072 162.429 56.416 A 65.721 65.721 0 0 1 163.2 53.301 Q 165 46.701 167.95 39.401 Q 170.9 32.101 174.4 25.151 Q 177.9 18.201 181.4 12.501 A 100.995 100.995 0 0 1 183.845 8.701 Q 185.96 5.579 187.85 3.401 A 24.453 24.453 0 0 1 189.071 2.086 Q 191.169 0.001 192.5 0.001 A 1.771 1.771 0 0 1 193.798 0.565 Q 194.035 0.805 194.24 1.147 A 4.111 4.111 0 0 1 194.3 1.251 Q 194.956 2.422 195.349 4.034 A 15.61 15.61 0 0 1 195.4 4.251 Q 195.758 5.816 195.796 7.101 A 10.197 10.197 0 0 1 195.8 7.401 A 14.488 14.488 0 0 1 195.655 9.35 Q 195.377 11.383 194.568 14.066 A 50.358 50.358 0 0 1 194.45 14.451 A 65.881 65.881 0 0 1 193.058 18.448 Q 192.028 21.141 190.65 24.151 A 97.709 97.709 0 0 1 186.469 32.232 A 110.916 110.916 0 0 1 184.85 34.951 Q 181.5 40.401 177.55 45.401 A 58.862 58.862 0 0 1 172.172 51.36 A 49.717 49.717 0 0 1 169.2 54.001 A 66.011 66.011 0 0 0 168.366 58.45 A 59.276 59.276 0 0 0 168.25 59.251 A 37.76 37.76 0 0 0 167.938 62.564 A 31.905 31.905 0 0 0 167.9 64.101 A 22.133 22.133 0 0 0 167.987 66.136 Q 168.177 68.179 168.778 69.472 A 5.389 5.389 0 0 0 169 69.901 A 3.975 3.975 0 0 0 170.001 71.075 Q 170.94 71.801 172.3 71.801 Q 174.733 71.801 177.124 69.853 A 13.216 13.216 0 0 0 177.65 69.401 A 26.199 26.199 0 0 0 180.381 66.498 A 35.163 35.163 0 0 0 182.65 63.351 Q 185 59.701 186.7 55.801 Z M 310.4 56.101 L 311.6 57.101 A 16.442 16.442 0 0 1 309.827 60.296 A 11.378 11.378 0 0 1 305.95 63.751 Q 302.3 65.701 299 65.701 A 12.295 12.295 0 0 1 296.651 65.481 A 11.377 11.377 0 0 1 296.5 65.451 Q 295.3 65.201 294.2 64.701 Q 290.8 69.201 286.75 72.201 A 18.281 18.281 0 0 1 283.903 73.954 Q 282.152 74.809 280.451 75.077 A 9.929 9.929 0 0 1 278.9 75.201 Q 276.103 75.201 274.364 74.079 A 5.429 5.429 0 0 1 272.8 72.551 A 10.256 10.256 0 0 1 271.203 68.524 A 13.884 13.884 0 0 1 271 66.101 A 21.093 21.093 0 0 1 271.54 61.44 A 25.06 25.06 0 0 1 272 59.701 Q 273 56.401 274.65 53.501 A 21.34 21.34 0 0 1 276.285 51.024 A 15.684 15.684 0 0 1 278.35 48.801 A 8.699 8.699 0 0 1 279.765 47.776 Q 280.719 47.231 281.684 47.069 A 4.926 4.926 0 0 1 282.5 47.001 A 3.729 3.729 0 0 1 283.178 47.065 A 4.572 4.572 0 0 1 283.55 47.151 A 9.742 9.742 0 0 1 284.538 47.476 A 8.973 8.973 0 0 1 284.6 47.501 Q 283.864 48.155 282.895 49.711 A 28.267 28.267 0 0 0 282.45 50.451 A 33.287 33.287 0 0 0 281.101 53.04 A 43.267 43.267 0 0 0 280.1 55.351 A 52.685 52.685 0 0 0 278.297 60.632 A 48.638 48.638 0 0 0 278.25 60.801 A 25.492 25.492 0 0 0 277.808 62.638 Q 277.635 63.507 277.559 64.273 A 11.477 11.477 0 0 0 277.5 65.401 Q 277.5 68.027 278.267 69.389 A 3.449 3.449 0 0 0 278.5 69.751 Q 279.5 71.101 281.1 71.101 Q 283.017 71.101 285.599 69.227 A 19.47 19.47 0 0 0 286.1 68.851 A 29.963 29.963 0 0 0 289.153 66.107 A 40.525 40.525 0 0 0 291.8 63.101 A 14.503 14.503 0 0 1 288.245 58.729 A 17.942 17.942 0 0 1 287.45 57.051 Q 285.9 53.301 285.9 49.401 Q 285.9 46.101 287.05 43.201 A 11.86 11.86 0 0 1 288.674 40.304 A 10.183 10.183 0 0 1 290.4 38.551 A 8.031 8.031 0 0 1 294.823 36.837 A 10.336 10.336 0 0 1 295.7 36.801 Q 299.8 36.801 301.2 39.001 A 8.597 8.597 0 0 1 302.323 41.78 Q 302.574 42.914 302.598 44.227 A 15.237 15.237 0 0 1 302.6 44.501 A 18.954 18.954 0 0 1 302.183 48.344 Q 301.813 50.128 301.116 52.058 A 34.344 34.344 0 0 1 300.7 53.151 Q 298.8 57.901 295.9 62.301 Q 297.7 63.301 299.7 63.301 A 9.435 9.435 0 0 0 301.26 63.162 Q 301.982 63.041 302.768 62.814 A 16.91 16.91 0 0 0 303.3 62.651 A 10.905 10.905 0 0 0 305.596 61.582 A 14.477 14.477 0 0 0 307.25 60.401 A 10.529 10.529 0 0 0 309.464 57.863 A 13.687 13.687 0 0 0 310.4 56.101 Z M 346.9 56.101 L 348.1 57.101 A 16.442 16.442 0 0 1 346.327 60.296 A 11.378 11.378 0 0 1 342.45 63.751 Q 338.8 65.701 335.5 65.701 A 12.295 12.295 0 0 1 333.151 65.481 A 11.377 11.377 0 0 1 333 65.451 Q 331.8 65.201 330.7 64.701 Q 327.3 69.201 323.25 72.201 A 18.281 18.281 0 0 1 320.403 73.954 Q 318.652 74.809 316.951 75.077 A 9.929 9.929 0 0 1 315.4 75.201 Q 312.603 75.201 310.864 74.079 A 5.429 5.429 0 0 1 309.3 72.551 A 10.256 10.256 0 0 1 307.703 68.524 A 13.884 13.884 0 0 1 307.5 66.101 A 21.093 21.093 0 0 1 308.04 61.44 A 25.06 25.06 0 0 1 308.5 59.701 Q 309.5 56.401 311.15 53.501 A 21.34 21.34 0 0 1 312.785 51.024 A 15.684 15.684 0 0 1 314.85 48.801 A 8.699 8.699 0 0 1 316.265 47.776 Q 317.219 47.231 318.184 47.069 A 4.926 4.926 0 0 1 319 47.001 A 3.729 3.729 0 0 1 319.678 47.065 A 4.572 4.572 0 0 1 320.05 47.151 A 9.742 9.742 0 0 1 321.038 47.476 A 8.973 8.973 0 0 1 321.1 47.501 Q 320.364 48.155 319.395 49.711 A 28.267 28.267 0 0 0 318.95 50.451 A 33.287 33.287 0 0 0 317.601 53.04 A 43.267 43.267 0 0 0 316.6 55.351 A 52.685 52.685 0 0 0 314.797 60.632 A 48.638 48.638 0 0 0 314.75 60.801 A 25.492 25.492 0 0 0 314.308 62.638 Q 314.135 63.507 314.059 64.273 A 11.477 11.477 0 0 0 314 65.401 Q 314 68.027 314.767 69.389 A 3.449 3.449 0 0 0 315 69.751 Q 316 71.101 317.6 71.101 Q 319.517 71.101 322.099 69.227 A 19.47 19.47 0 0 0 322.6 68.851 A 29.963 29.963 0 0 0 325.653 66.107 A 40.525 40.525 0 0 0 328.3 63.101 A 14.503 14.503 0 0 1 324.745 58.729 A 17.942 17.942 0 0 1 323.95 57.051 Q 322.4 53.301 322.4 49.401 Q 322.4 46.101 323.55 43.201 A 11.86 11.86 0 0 1 325.174 40.304 A 10.183 10.183 0 0 1 326.9 38.551 A 8.031 8.031 0 0 1 331.323 36.837 A 10.336 10.336 0 0 1 332.2 36.801 Q 336.3 36.801 337.7 39.001 A 8.597 8.597 0 0 1 338.823 41.78 Q 339.074 42.914 339.098 44.227 A 15.237 15.237 0 0 1 339.1 44.501 A 18.954 18.954 0 0 1 338.683 48.344 Q 338.313 50.128 337.616 52.058 A 34.344 34.344 0 0 1 337.2 53.151 Q 335.3 57.901 332.4 62.301 Q 334.2 63.301 336.2 63.301 A 9.435 9.435 0 0 0 337.76 63.162 Q 338.482 63.041 339.268 62.814 A 16.91 16.91 0 0 0 339.8 62.651 A 10.905 10.905 0 0 0 342.096 61.582 A 14.477 14.477 0 0 0 343.75 60.401 A 10.529 10.529 0 0 0 345.964 57.863 A 13.687 13.687 0 0 0 346.9 56.101 Z M 346 61.001 L 345.1 59.301 Q 346.5 56.701 348.75 51.701 Q 351 46.701 353.2 40.301 A 3.27 3.27 0 0 1 352.2 37.944 A 3.89 3.89 0 0 1 352.2 37.901 A 8.649 8.649 0 0 1 352.47 35.685 A 6.425 6.425 0 0 1 353.9 33.001 A 16.95 16.95 0 0 1 354.554 32.307 Q 355.512 31.351 356.111 31.153 A 0.926 0.926 0 0 1 356.4 31.101 A 1.888 1.888 0 0 1 356.864 31.153 Q 357.467 31.306 357.621 31.909 A 1.55 1.55 0 0 1 357.65 32.051 Q 357.773 32.83 357.795 33.307 A 4.206 4.206 0 0 1 357.8 33.501 A 1.615 1.615 0 0 1 357.774 33.765 Q 357.696 34.225 357.385 35.085 A 23.542 23.542 0 0 1 357.25 35.451 A 35.513 35.513 0 0 0 357.063 35.954 Q 356.719 36.906 356.701 37.174 A 0.412 0.412 0 0 0 356.7 37.201 Q 356.7 38.601 358.25 39.751 Q 359.582 40.739 361.247 41.949 A 548.033 548.033 0 0 0 361.8 42.351 Q 363.8 43.801 365.35 45.851 A 7.414 7.414 0 0 1 366.654 48.733 Q 366.893 49.791 366.9 51.021 A 13.119 13.119 0 0 1 366.9 51.101 A 14.386 14.386 0 0 1 366.9 51.147 Q 366.89 54.125 365.65 57.201 Q 364.4 60.301 363.15 63.101 A 18.056 18.056 0 0 0 362.439 64.943 Q 361.9 66.622 361.9 68.001 Q 361.9 69.64 362.647 70.284 A 1.557 1.557 0 0 0 362.8 70.401 A 3.579 3.579 0 0 0 364.479 70.981 A 4.5 4.5 0 0 0 364.9 71.001 A 8.545 8.545 0 0 0 367.725 70.499 A 11.989 11.989 0 0 0 369.85 69.501 A 25.453 25.453 0 0 0 373.286 67.06 A 30.495 30.495 0 0 0 374.8 65.701 Q 377.2 63.401 379.1 60.851 Q 380.683 58.726 381.572 56.845 A 15.348 15.348 0 0 0 381.9 56.101 L 383.2 57.101 A 35.465 35.465 0 0 1 380.015 62.677 A 43.092 43.092 0 0 1 378 65.351 A 32.321 32.321 0 0 1 372.689 70.564 A 28.946 28.946 0 0 1 370.65 72.001 A 16.861 16.861 0 0 1 366.407 73.991 A 14.161 14.161 0 0 1 362.3 74.601 A 10.386 10.386 0 0 1 360.134 74.388 Q 358.721 74.087 357.652 73.358 A 6.075 6.075 0 0 1 356.95 72.801 A 5.973 5.973 0 0 1 355.02 68.678 A 8.153 8.153 0 0 1 355 68.101 A 14.471 14.471 0 0 1 355.494 64.432 A 19.162 19.162 0 0 1 356.4 61.801 Q 357.8 58.501 359.15 55.251 A 20.755 20.755 0 0 0 359.973 52.905 Q 360.5 51.026 360.5 49.401 Q 360.5 46.201 358.65 44.651 Q 356.8 43.101 354.9 41.801 Q 352.6 47.701 350.1 53.001 Q 348.04 57.369 346.591 59.971 A 44.419 44.419 0 0 1 346 61.001 Z M 116.8 40.501 L 116.8 39.301 Q 116.8 36.232 117.66 34.642 A 3.878 3.878 0 0 1 118.05 34.051 Q 118.83 33.084 119.668 32.72 A 2.569 2.569 0 0 1 120.7 32.501 A 2.55 2.55 0 0 1 121.151 32.538 Q 121.622 32.622 121.9 32.901 A 1.474 1.474 0 0 1 122.159 33.242 A 1.16 1.16 0 0 1 122.3 33.801 A 2.542 2.542 0 0 1 122.281 34.088 Q 122.225 34.576 122 35.401 A 7.414 7.414 0 0 0 121.817 36.31 Q 121.7 37.138 121.7 38.201 A 19.398 19.398 0 0 0 122.067 41.862 A 26.656 26.656 0 0 0 123 45.351 Q 124.3 49.201 125.6 53.451 Q 126.9 57.701 126.9 62.301 Q 126.9 63.601 126.75 64.851 A 17.018 17.018 0 0 1 126.457 66.57 A 14.686 14.686 0 0 1 126.3 67.201 Q 129.8 66.601 132.9 64.051 A 16.612 16.612 0 0 0 135.103 61.824 Q 136.072 60.656 137.022 59.175 A 41.041 41.041 0 0 0 138.9 55.901 L 139.8 56.901 A 21.097 21.097 0 0 1 137.943 60.932 A 15.032 15.032 0 0 1 134.1 65.251 Q 130.3 68.101 125.8 68.801 Q 124.2 73.101 120.75 75.101 A 14.954 14.954 0 0 1 113.865 77.08 A 17.956 17.956 0 0 1 113 77.101 A 17.447 17.447 0 0 1 110.003 76.859 Q 107.356 76.397 105.55 75.051 A 11.703 11.703 0 0 1 102.657 71.993 A 10.882 10.882 0 0 1 101.65 70.001 A 17.031 17.031 0 0 1 100.555 65.313 A 15.7 15.7 0 0 1 100.5 64.001 Q 100.5 61.001 101.3 59.401 A 7.922 7.922 0 0 1 102.008 58.233 Q 102.476 57.6 103.029 57.164 A 4.671 4.671 0 0 1 103.25 57.001 Q 104.362 56.227 105.38 55.828 A 7.542 7.542 0 0 1 105.45 55.801 Q 106.5 55.401 106.9 55.001 Q 109.9 51.701 112.4 48.101 Q 114.9 44.501 116.8 40.501 Z M 163 55.801 L 163.9 56.801 Q 161.273 64.592 156.552 69.101 A 21.944 21.944 0 0 1 155.55 70.001 A 21.835 21.835 0 0 1 151.224 72.892 A 15.582 15.582 0 0 1 144.2 74.601 Q 141.054 74.601 139.21 73.006 A 5.932 5.932 0 0 1 138.4 72.151 A 9.016 9.016 0 0 1 136.582 67.605 A 11.798 11.798 0 0 1 136.5 66.201 Q 136.5 64.655 136.884 62.568 A 39.423 39.423 0 0 1 137.35 60.401 A 64.863 64.863 0 0 1 138.628 55.889 A 78.669 78.669 0 0 1 139.6 53.051 A 53.414 53.414 0 0 1 142.621 46.227 A 49.306 49.306 0 0 1 142.85 45.801 A 31.029 31.029 0 0 1 144.517 43.065 Q 145.412 41.761 146.36 40.718 A 17.836 17.836 0 0 1 146.8 40.251 Q 148.101 38.919 149.364 38.412 A 4.102 4.102 0 0 1 150.9 38.101 A 2.459 2.459 0 0 1 151.81 38.265 A 2.282 2.282 0 0 1 152.45 38.651 A 1.752 1.752 0 0 1 153.009 39.552 Q 153.1 39.888 153.1 40.301 Q 153.1 41.414 151.767 43.817 A 30.151 30.151 0 0 1 151.55 44.201 Q 150.218 46.521 148.48 49.432 A 527.778 527.778 0 0 1 147.9 50.401 Q 145.8 53.901 144.25 57.751 Q 142.7 61.601 142.7 65.101 A 16.948 16.948 0 0 0 142.766 66.656 Q 142.981 68.982 143.9 69.901 A 3.696 3.696 0 0 0 145.311 70.762 Q 145.897 70.968 146.619 71.049 A 8.857 8.857 0 0 0 147.6 71.101 A 7.976 7.976 0 0 0 150.647 70.456 Q 151.821 69.972 153.042 69.127 A 19.563 19.563 0 0 0 154.85 67.701 A 20.815 20.815 0 0 0 157.269 65.116 Q 160.027 61.678 163 55.801 Z M 17.6 34.901 Q 23.1 34.701 28.55 33.651 Q 34 32.601 38.5 30.301 A 21.631 21.631 0 0 0 43.442 26.879 A 19.069 19.069 0 0 0 45.75 24.301 A 13.685 13.685 0 0 0 48.197 18.554 A 18.849 18.849 0 0 0 48.5 15.101 A 17.717 17.717 0 0 0 48.249 12.016 Q 47.715 9.004 46.05 7.101 Q 43.6 4.301 39.75 3.201 A 29.116 29.116 0 0 0 32.668 2.118 A 32.977 32.977 0 0 0 31.6 2.101 L 30.65 2.101 A 4.546 4.546 0 0 0 30.038 2.144 A 5.501 5.501 0 0 0 29.7 2.201 A 114.018 114.018 0 0 0 25.454 11.497 A 137.238 137.238 0 0 0 23.15 17.601 Q 20.2 26.001 17.6 34.901 Z M 170.1 50.601 A 62.647 62.647 0 0 0 174.608 45.555 A 75.912 75.912 0 0 0 176.9 42.551 Q 180.2 38.001 183.05 33.101 Q 185.9 28.201 188.1 23.601 Q 190.3 19.001 191.5 15.351 Q 192.498 12.315 192.666 10.421 A 8.177 8.177 0 0 0 192.7 9.701 A 6.299 6.299 0 0 0 192.688 9.297 Q 192.649 8.691 192.482 8.443 A 0.526 0.526 0 0 0 192.45 8.401 A 1.556 1.556 0 0 0 192.336 8.276 Q 192.208 8.153 192.094 8.116 A 0.304 0.304 0 0 0 192 8.101 A 0.927 0.927 0 0 0 191.564 8.24 Q 190.745 8.696 189.25 10.651 A 49.537 49.537 0 0 0 187.833 12.611 Q 186.406 14.679 184.7 17.501 Q 182.1 21.801 179.4 27.301 A 183.076 183.076 0 0 0 174.404 38.426 A 199.301 199.301 0 0 0 174.25 38.801 A 123.762 123.762 0 0 0 170.565 49.056 A 111.599 111.599 0 0 0 170.1 50.601 Z M 120 67.101 A 19.451 19.451 0 0 0 120.259 65.41 A 21.948 21.948 0 0 0 120.3 65.001 A 21.766 21.766 0 0 0 120.361 64.119 Q 120.386 63.631 120.395 63.082 A 40.906 40.906 0 0 0 120.4 62.401 Q 120.4 57.701 119.25 53.051 Q 118.1 48.401 117.3 44.301 Q 115 48.101 112.45 51.551 Q 110.398 54.327 108.508 56.358 A 36.317 36.317 0 0 1 107.6 57.301 A 16.847 16.847 0 0 0 109.963 60.96 A 22.249 22.249 0 0 0 112.25 63.301 Q 115.4 66.101 120 67.101 Z M 293.6 60.501 Q 296.1 56.801 297.75 52.751 A 23.947 23.947 0 0 0 298.935 49.053 A 17.735 17.735 0 0 0 299.4 45.101 Q 299.4 42.555 298.745 41.204 A 3.65 3.65 0 0 0 298.55 40.851 A 3.631 3.631 0 0 0 298.006 40.168 A 2.242 2.242 0 0 0 296.4 39.501 Q 294.4 39.501 292.3 42.401 A 10.731 10.731 0 0 0 290.521 46.492 A 15.248 15.248 0 0 0 290.2 49.701 A 20.988 20.988 0 0 0 290.998 55.366 A 23.378 23.378 0 0 0 291.05 55.551 Q 291.9 58.501 293.6 60.501 Z M 330.1 60.501 Q 332.6 56.801 334.25 52.751 A 23.947 23.947 0 0 0 335.435 49.053 A 17.735 17.735 0 0 0 335.9 45.101 Q 335.9 42.555 335.245 41.204 A 3.65 3.65 0 0 0 335.05 40.851 A 3.631 3.631 0 0 0 334.506 40.168 A 2.242 2.242 0 0 0 332.9 39.501 Q 330.9 39.501 328.8 42.401 A 10.731 10.731 0 0 0 327.021 46.492 A 15.248 15.248 0 0 0 326.7 49.701 A 20.988 20.988 0 0 0 327.498 55.366 A 23.378 23.378 0 0 0 327.55 55.551 Q 328.4 58.501 330.1 60.501 Z M 116.021 72.948 A 19.399 19.399 0 0 0 116.4 72.801 A 4.024 4.024 0 0 0 117.953 71.652 Q 118.859 70.599 119.481 68.757 A 14.585 14.585 0 0 0 119.5 68.701 Q 115.3 67.901 112.05 65.401 A 27.871 27.871 0 0 1 109.845 63.526 Q 108.2 61.963 107.2 60.401 Q 105.045 60.499 105.001 63.763 A 10.2 10.2 0 0 0 105 63.901 Q 105 67.501 107.15 70.551 A 6.832 6.832 0 0 0 112.081 73.533 A 9.065 9.065 0 0 0 113.2 73.601 Q 114.284 73.601 116.021 72.948 Z M 154.391 28.507 A 5.454 5.454 0 0 0 156.2 28.801 A 6.275 6.275 0 0 0 158.738 28.27 A 7.696 7.696 0 0 0 160.65 27.051 Q 161.643 26.203 162.155 25.32 A 3.784 3.784 0 0 0 162.7 23.401 A 5.35 5.35 0 0 0 162.662 22.742 Q 162.515 21.556 161.8 21.001 A 2.889 2.889 0 0 0 161.413 20.747 Q 160.598 20.301 159.4 20.301 Q 157 20.301 154.55 21.851 Q 153.555 22.48 152.964 23.201 A 3.549 3.549 0 0 0 152.1 25.501 A 4.027 4.027 0 0 0 152.141 26.082 A 2.614 2.614 0 0 0 153.35 28.001 A 4.951 4.951 0 0 0 154.391 28.507 Z"/></g></svg>