<svg width="50.22" height="18.994" viewBox="0 0 50.22 18.994" xmlns="http://www.w3.org/2000/svg"><g id="svgGroup" stroke-linecap="round" fill-rule="evenodd" font-size="9pt" stroke="#6998AB" stroke-width="0.25mm" fill="#6998AB" style="stroke:#6998AB;stroke-width:0.25mm;fill:#6998AB"><path d="M 38.635 9.424 L 36.365 9.424 A 1.972 1.972 0 0 0 35.783 8.019 A 2.785 2.785 0 0 0 35.577 7.825 A 2.775 2.775 0 0 0 34.166 7.195 A 3.774 3.774 0 0 0 33.594 7.153 A 4.574 4.574 0 0 0 32.842 7.211 Q 32.443 7.278 32.121 7.421 A 2.21 2.21 0 0 0 31.665 7.69 A 1.813 1.813 0 0 0 31.179 8.242 Q 30.976 8.607 30.969 9.065 A 2.137 2.137 0 0 0 30.969 9.094 A 1.633 1.633 0 0 0 31.053 9.63 A 1.332 1.332 0 0 0 31.616 10.327 A 3.037 3.037 0 0 0 32.034 10.545 Q 32.712 10.843 33.954 11.121 Q 35.171 11.393 36.056 11.741 A 7.894 7.894 0 0 1 36.694 12.024 A 5.28 5.28 0 0 1 37.405 12.448 Q 37.934 12.826 38.251 13.287 A 2.845 2.845 0 0 1 38.701 14.418 A 3.856 3.856 0 0 1 38.757 15.088 A 3.556 3.556 0 0 1 38.447 16.592 Q 38.094 17.358 37.341 17.926 A 5.08 5.08 0 0 1 35.452 18.797 Q 34.739 18.969 33.907 18.991 A 9.268 9.268 0 0 1 33.667 18.994 A 7.627 7.627 0 0 1 32.183 18.856 A 5.899 5.899 0 0 1 30.859 18.433 A 4.919 4.919 0 0 1 29.654 17.66 A 4.279 4.279 0 0 1 28.949 16.864 A 3.781 3.781 0 0 1 28.259 14.685 L 30.518 14.685 A 2.59 2.59 0 0 0 30.722 15.588 A 2.298 2.298 0 0 0 31.427 16.486 A 2.978 2.978 0 0 0 32.544 17.021 Q 33.053 17.151 33.667 17.151 Q 34.627 17.151 35.302 16.86 A 2.613 2.613 0 0 0 35.724 16.632 A 1.914 1.914 0 0 0 36.181 16.214 A 1.539 1.539 0 0 0 36.499 15.247 A 1.94 1.94 0 0 0 36.398 14.606 A 1.613 1.613 0 0 0 35.809 13.824 A 2.918 2.918 0 0 0 35.34 13.551 Q 34.637 13.215 33.405 12.952 Q 32.279 12.711 31.458 12.408 A 7.276 7.276 0 0 1 30.682 12.073 A 5.143 5.143 0 0 1 30.001 11.661 Q 29.637 11.398 29.379 11.095 A 2.826 2.826 0 0 1 29.193 10.852 A 2.768 2.768 0 0 1 28.741 9.639 A 3.587 3.587 0 0 1 28.711 9.167 A 3.351 3.351 0 0 1 29.819 6.654 A 4.705 4.705 0 0 1 30.084 6.421 A 4.868 4.868 0 0 1 32.259 5.422 A 6.864 6.864 0 0 1 33.594 5.298 A 7.108 7.108 0 0 1 35.159 5.461 A 4.882 4.882 0 0 1 37.238 6.458 A 3.845 3.845 0 0 1 38.286 7.779 A 3.811 3.811 0 0 1 38.635 9.424 Z M 25.732 18.75 L 23.364 18.75 Q 23.216 18.454 23.11 17.805 A 11.102 11.102 0 0 1 23.047 17.358 A 5.37 5.37 0 0 1 21.32 18.585 A 5.039 5.039 0 0 1 19.287 18.994 A 5.648 5.648 0 0 1 17.817 18.812 A 4.247 4.247 0 0 1 16.083 17.889 A 3.551 3.551 0 0 1 14.837 15.304 A 4.453 4.453 0 0 1 14.832 15.088 A 4.327 4.327 0 0 1 15.066 13.63 A 3.639 3.639 0 0 1 16.4 11.884 Q 17.608 11.005 19.572 10.803 A 12.135 12.135 0 0 1 20.813 10.742 L 23.01 10.742 L 23.01 9.705 A 3.201 3.201 0 0 0 22.911 8.885 A 2.299 2.299 0 0 0 22.302 7.819 A 2.245 2.245 0 0 0 21.394 7.281 Q 21.043 7.168 20.617 7.133 A 4.856 4.856 0 0 0 20.215 7.117 A 3.959 3.959 0 0 0 19.265 7.225 A 2.966 2.966 0 0 0 18.188 7.727 A 2.376 2.376 0 0 0 17.731 8.166 A 1.645 1.645 0 0 0 17.371 9.204 L 15.1 9.204 A 2.891 2.891 0 0 1 15.447 7.847 A 3.913 3.913 0 0 1 15.802 7.294 A 4.528 4.528 0 0 1 17.07 6.168 A 5.702 5.702 0 0 1 17.706 5.835 A 6.247 6.247 0 0 1 19.861 5.314 A 7.415 7.415 0 0 1 20.349 5.298 A 7.36 7.36 0 0 1 21.786 5.43 Q 22.64 5.6 23.303 5.989 A 3.998 3.998 0 0 1 23.926 6.439 A 3.878 3.878 0 0 1 25.185 8.734 A 5.55 5.55 0 0 1 25.269 9.583 L 25.269 15.662 A 11.606 11.606 0 0 0 25.318 16.775 Q 25.37 17.304 25.473 17.749 A 4.743 4.743 0 0 0 25.732 18.555 L 25.732 18.75 Z M 6.165 18.75 L 0 18.75 L 0 0.977 L 5.811 0.977 A 11.197 11.197 0 0 1 7.402 1.082 Q 8.215 1.199 8.872 1.446 A 4.524 4.524 0 0 1 10.162 2.173 A 3.843 3.843 0 0 1 11.471 4.329 A 6.011 6.011 0 0 1 11.621 5.713 A 3.61 3.61 0 0 1 10.913 7.916 A 4.413 4.413 0 0 1 9.494 9.149 A 5.479 5.479 0 0 1 8.984 9.399 A 4.364 4.364 0 0 1 10.414 10.082 A 4.017 4.017 0 0 1 11.261 10.931 Q 12.097 12.061 12.097 13.623 Q 12.097 16.016 10.547 17.383 Q 9.233 18.541 6.999 18.718 A 10.583 10.583 0 0 1 6.165 18.75 Z M 50.22 0 L 50.22 18.75 L 47.961 18.75 L 47.961 0 L 50.22 0 Z M 44.153 5.542 L 44.153 18.75 L 41.895 18.75 L 41.895 5.542 L 44.153 5.542 Z M 6.25 10.437 L 2.344 10.437 L 2.344 16.833 L 6.213 16.833 A 5.111 5.111 0 0 0 7.256 16.733 Q 8.174 16.542 8.795 15.985 A 2.787 2.787 0 0 0 9.688 14.316 A 4.052 4.052 0 0 0 9.741 13.647 Q 9.741 10.437 6.25 10.437 Z M 2.344 2.905 L 2.344 8.557 L 5.884 8.557 A 4.993 4.993 0 0 0 6.91 8.458 Q 7.562 8.321 8.063 7.995 A 2.932 2.932 0 0 0 8.344 7.788 A 2.514 2.514 0 0 0 9.254 5.983 A 3.529 3.529 0 0 0 9.265 5.701 Q 9.265 4.236 8.411 3.571 Q 7.56 2.908 5.827 2.905 A 9.085 9.085 0 0 0 5.811 2.905 L 2.344 2.905 Z M 23.01 15.051 L 23.01 12.341 L 21.24 12.341 A 10.599 10.599 0 0 0 19.83 12.427 Q 17.09 12.797 17.09 14.771 A 2.555 2.555 0 0 0 17.185 15.488 A 1.907 1.907 0 0 0 17.798 16.431 A 2.482 2.482 0 0 0 18.946 16.967 A 3.497 3.497 0 0 0 19.617 17.029 A 3.969 3.969 0 0 0 21.631 16.479 A 3.707 3.707 0 0 0 22.452 15.848 A 3.077 3.077 0 0 0 23.01 15.051 Z M 41.789 1.55 A 1.487 1.487 0 0 0 41.711 2.039 A 1.68 1.68 0 0 0 41.718 2.189 A 1.267 1.267 0 0 0 42.047 2.954 A 1.005 1.005 0 0 0 42.255 3.127 Q 42.431 3.237 42.662 3.285 A 1.895 1.895 0 0 0 43.042 3.32 A 2.231 2.231 0 0 0 43.153 3.318 Q 43.365 3.307 43.542 3.255 A 1.091 1.091 0 0 0 44.043 2.954 A 1.228 1.228 0 0 0 44.315 2.499 A 1.452 1.452 0 0 0 44.385 2.039 A 1.704 1.704 0 0 0 44.383 1.954 A 1.316 1.316 0 0 0 44.043 1.111 A 1.037 1.037 0 0 0 43.876 0.962 Q 43.689 0.828 43.436 0.772 A 1.83 1.83 0 0 0 43.042 0.732 A 2.175 2.175 0 0 0 42.946 0.734 Q 42.743 0.743 42.572 0.791 A 1.071 1.071 0 0 0 42.047 1.111 A 1.292 1.292 0 0 0 41.789 1.55 Z" vector-effect="non-scaling-stroke"/></g></svg>