<svg width="49.011" height="18.994" viewBox="0 0 49.011 18.994" xmlns="http://www.w3.org/2000/svg"><g id="svgGroup" stroke-linecap="round" fill-rule="evenodd" font-size="9pt" stroke="#ffffff" stroke-width="0.25mm" fill="#ffffff" style="stroke:#ffffff;stroke-width:0.25mm;fill:#ffffff"><path d="M 10.376 5.542 L 12.512 5.542 L 12.573 7.007 A 4.761 4.761 0 0 1 15.964 5.318 A 6.664 6.664 0 0 1 16.492 5.298 A 5.58 5.58 0 0 1 17.91 5.466 A 3.456 3.456 0 0 1 20.264 7.422 A 5.003 5.003 0 0 1 21.979 5.884 A 4.584 4.584 0 0 1 23.449 5.38 A 6.137 6.137 0 0 1 24.475 5.298 A 5.887 5.887 0 0 1 26.264 5.546 Q 28.838 6.367 28.894 9.9 L 28.894 18.75 L 26.636 18.75 L 26.636 10.034 Q 26.636 8.618 25.989 7.916 A 1.888 1.888 0 0 0 25.286 7.449 Q 24.699 7.215 23.819 7.214 A 4.491 4.491 0 0 0 23.816 7.214 A 3.46 3.46 0 0 0 22.802 7.357 A 2.799 2.799 0 0 0 21.729 7.965 A 2.895 2.895 0 0 0 20.856 9.455 A 3.917 3.917 0 0 0 20.764 9.985 L 20.764 18.75 L 18.494 18.75 L 18.494 10.095 Q 18.494 7.821 16.736 7.342 A 4.047 4.047 0 0 0 15.674 7.214 A 4 4 0 0 0 14.464 7.386 Q 13.265 7.765 12.689 8.984 A 4.053 4.053 0 0 0 12.634 9.106 L 12.634 18.75 L 10.376 18.75 L 10.376 5.542 Z M 49.011 18.75 L 46.643 18.75 Q 46.495 18.454 46.389 17.805 A 11.102 11.102 0 0 1 46.326 17.358 A 5.37 5.37 0 0 1 44.598 18.585 A 5.039 5.039 0 0 1 42.566 18.994 A 5.648 5.648 0 0 1 41.096 18.812 A 4.247 4.247 0 0 1 39.362 17.889 A 3.551 3.551 0 0 1 38.116 15.304 A 4.453 4.453 0 0 1 38.11 15.088 A 4.327 4.327 0 0 1 38.345 13.63 A 3.639 3.639 0 0 1 39.679 11.884 Q 40.887 11.005 42.85 10.803 A 12.135 12.135 0 0 1 44.092 10.742 L 46.289 10.742 L 46.289 9.705 A 3.201 3.201 0 0 0 46.19 8.885 A 2.299 2.299 0 0 0 45.581 7.819 A 2.245 2.245 0 0 0 44.672 7.281 Q 44.321 7.168 43.896 7.133 A 4.856 4.856 0 0 0 43.494 7.117 A 3.959 3.959 0 0 0 42.544 7.225 A 2.966 2.966 0 0 0 41.467 7.727 A 2.376 2.376 0 0 0 41.01 8.166 A 1.645 1.645 0 0 0 40.649 9.204 L 38.379 9.204 A 2.891 2.891 0 0 1 38.726 7.847 A 3.913 3.913 0 0 1 39.081 7.294 A 4.528 4.528 0 0 1 40.348 6.168 A 5.702 5.702 0 0 1 40.985 5.835 A 6.247 6.247 0 0 1 43.14 5.314 A 7.415 7.415 0 0 1 43.628 5.298 A 7.36 7.36 0 0 1 45.065 5.43 Q 45.919 5.6 46.582 5.989 A 3.998 3.998 0 0 1 47.205 6.439 A 3.878 3.878 0 0 1 48.464 8.734 A 5.55 5.55 0 0 1 48.547 9.583 L 48.547 15.662 A 11.606 11.606 0 0 0 48.597 16.775 Q 48.648 17.304 48.752 17.749 A 4.743 4.743 0 0 0 49.011 18.555 L 49.011 18.75 Z M 2.344 0.977 L 2.344 18.75 L 0 18.75 L 0 0.977 L 2.344 0.977 Z M 46.289 15.051 L 46.289 12.341 L 44.519 12.341 A 10.599 10.599 0 0 0 43.109 12.427 Q 40.369 12.797 40.369 14.771 A 2.555 2.555 0 0 0 40.464 15.488 A 1.907 1.907 0 0 0 41.077 16.431 A 2.482 2.482 0 0 0 42.225 16.967 A 3.497 3.497 0 0 0 42.896 17.029 A 3.969 3.969 0 0 0 44.91 16.479 A 3.707 3.707 0 0 0 45.731 15.848 A 3.077 3.077 0 0 0 46.289 15.051 Z M 7.654 0 L 7.654 1.355 L 7.397 5.847 L 5.823 5.847 L 5.835 0 L 7.654 0 Z" vector-effect="non-scaling-stroke"/></g></svg>