<svg width="430.738" height="48.169" viewBox="0 0 430.738 48.169" xmlns="http://www.w3.org/2000/svg"><g id="svgGroup" stroke-linecap="round" fill-rule="evenodd" font-size="9pt" stroke="#ffffff" stroke-width="0.25mm" fill="#ffffff" style="stroke:#ffffff;stroke-width:0.25mm;fill:#ffffff"><path d="M 110.45 11.597 L 116.724 31.787 L 121.803 11.597 L 126.319 11.597 L 118.629 38.013 L 114.967 38.013 L 108.546 17.993 L 102.296 38.013 L 98.634 38.013 L 90.968 11.597 L 95.46 11.597 L 100.66 31.372 L 106.812 11.597 L 110.45 11.597 Z M 25.758 12.744 L 21.046 12.744 A 8.143 8.143 0 0 0 20.769 10.563 A 5.924 5.924 0 0 0 18.995 7.678 Q 17.204 6.068 14.128 5.864 A 13.902 13.902 0 0 0 13.209 5.835 A 12.701 12.701 0 0 0 11.098 5.999 Q 9.977 6.188 9.074 6.596 A 6.117 6.117 0 0 0 7.801 7.361 A 4.958 4.958 0 0 0 5.885 10.998 A 7.04 7.04 0 0 0 5.86 11.597 A 4.475 4.475 0 0 0 7.348 14.959 A 6.301 6.301 0 0 0 7.703 15.271 Q 9.547 16.772 13.978 18.018 A 45.709 45.709 0 0 1 16.559 18.821 Q 17.865 19.273 18.946 19.755 A 18.316 18.316 0 0 1 20.911 20.764 A 13.008 13.008 0 0 1 22.793 22.12 Q 23.849 23.044 24.528 24.115 A 8.053 8.053 0 0 1 24.622 24.268 A 8.324 8.324 0 0 1 25.713 27.355 A 10.822 10.822 0 0 1 25.831 28.979 A 8.921 8.921 0 0 1 25.151 32.515 Q 24.317 34.469 22.462 35.901 Q 19.441 38.232 14.595 38.473 A 22.991 22.991 0 0 1 13.453 38.501 A 16.796 16.796 0 0 1 7.116 37.308 A 16.202 16.202 0 0 1 6.617 37.097 A 13.238 13.238 0 0 1 3.961 35.553 A 10.408 10.408 0 0 1 1.722 33.252 Q 0.001 30.811 0.001 27.71 L 4.713 27.71 A 7.005 7.005 0 0 0 5.098 30.084 A 5.964 5.964 0 0 0 7.093 32.8 Q 9.229 34.476 12.654 34.648 A 15.947 15.947 0 0 0 13.453 34.668 A 14.598 14.598 0 0 0 15.603 34.52 Q 17.782 34.195 19.141 33.154 A 4.827 4.827 0 0 0 21.088 29.664 A 6.397 6.397 0 0 0 21.119 29.028 A 5.965 5.965 0 0 0 20.883 27.304 A 4.531 4.531 0 0 0 19.288 24.988 Q 17.821 23.844 14.442 22.723 A 48.762 48.762 0 0 0 12.647 22.168 Q 6.99 20.542 4.222 18.217 A 10.403 10.403 0 0 1 3.87 17.908 A 8.333 8.333 0 0 1 1.631 14.64 A 8.524 8.524 0 0 1 1.124 11.67 A 8.497 8.497 0 0 1 3.881 5.252 A 10.982 10.982 0 0 1 4.481 4.724 Q 7.838 1.978 13.209 1.978 A 16.183 16.183 0 0 1 16.876 2.377 A 13.176 13.176 0 0 1 19.74 3.394 A 11.392 11.392 0 0 1 22.69 5.454 A 10.19 10.19 0 0 1 24.183 7.3 A 9.989 9.989 0 0 1 25.758 12.744 Z M 151.954 38.013 L 147.218 38.013 A 3.512 3.512 0 0 1 147.02 37.512 Q 146.762 36.7 146.583 35.229 A 10.741 10.741 0 0 1 143.128 37.683 A 10.078 10.078 0 0 1 139.063 38.501 A 11.296 11.296 0 0 1 136.123 38.137 A 8.494 8.494 0 0 1 132.655 36.292 A 7.101 7.101 0 0 1 130.163 31.121 A 8.906 8.906 0 0 1 130.152 30.688 A 8.654 8.654 0 0 1 130.621 27.773 A 7.278 7.278 0 0 1 133.289 24.28 A 10.682 10.682 0 0 1 136.49 22.729 Q 137.917 22.295 139.632 22.118 A 24.271 24.271 0 0 1 142.115 21.997 L 146.51 21.997 L 146.51 19.922 Q 146.51 17.554 145.094 16.15 Q 143.892 14.959 141.723 14.778 A 9.713 9.713 0 0 0 140.919 14.746 A 7.918 7.918 0 0 0 139.018 14.963 A 5.932 5.932 0 0 0 136.866 15.967 Q 135.23 17.188 135.23 18.921 L 130.689 18.921 Q 130.689 16.943 132.093 15.1 Q 133.497 13.257 135.902 12.183 A 12.494 12.494 0 0 1 140.211 11.14 A 14.83 14.83 0 0 1 141.187 11.108 A 14.72 14.72 0 0 1 144.062 11.372 Q 145.769 11.712 147.096 12.491 A 7.995 7.995 0 0 1 148.341 13.391 A 7.755 7.755 0 0 1 150.859 17.98 A 11.1 11.1 0 0 1 151.026 19.678 L 151.026 31.836 Q 151.026 35.474 151.954 37.622 L 151.954 38.013 Z M 385.743 24.683 L 385.743 25.098 Q 385.743 30.026 383.9 33.389 A 11.998 11.998 0 0 1 382.984 34.814 A 8.724 8.724 0 0 1 376.661 38.443 A 11.181 11.181 0 0 1 375.514 38.501 A 12.198 12.198 0 0 1 372.258 38.09 A 8.875 8.875 0 0 1 367.945 35.449 L 367.945 48.169 L 363.429 48.169 L 363.429 11.597 L 367.555 11.597 L 367.774 14.526 A 8.992 8.992 0 0 1 374.103 11.176 A 12.884 12.884 0 0 1 375.44 11.108 A 10.158 10.158 0 0 1 378.98 11.701 A 8.87 8.87 0 0 1 382.972 14.697 A 12.163 12.163 0 0 1 384.961 18.679 Q 385.474 20.389 385.651 22.44 A 26.189 26.189 0 0 1 385.743 24.683 Z M 173.414 25.537 L 173.414 24.707 A 17.608 17.608 0 0 1 173.838 20.768 A 14.34 14.34 0 0 1 174.915 17.688 A 12.173 12.173 0 0 1 177.401 14.213 A 11.296 11.296 0 0 1 179.115 12.854 A 10.558 10.558 0 0 1 184.962 11.108 A 12.524 12.524 0 0 1 188.368 11.547 A 9.107 9.107 0 0 1 192.97 14.502 Q 195.281 17.248 195.722 21.911 A 24.519 24.519 0 0 1 195.826 24.219 L 195.826 26.099 L 177.931 26.099 A 11.73 11.73 0 0 0 178.325 28.921 A 8.423 8.423 0 0 0 180.213 32.41 A 7.122 7.122 0 0 0 185.402 34.807 A 9.177 9.177 0 0 0 185.767 34.814 Q 188.16 34.814 189.82 33.838 Q 191.48 32.861 192.725 31.25 L 195.484 33.398 A 10.701 10.701 0 0 1 187.708 38.35 A 15.273 15.273 0 0 1 185.523 38.501 Q 180.152 38.501 176.783 34.973 A 11.864 11.864 0 0 1 173.76 29.078 A 17.238 17.238 0 0 1 173.414 25.537 Z M 245.069 25.537 L 245.069 24.707 A 17.608 17.608 0 0 1 245.493 20.768 A 14.34 14.34 0 0 1 246.571 17.688 A 12.173 12.173 0 0 1 249.057 14.213 A 11.296 11.296 0 0 1 250.77 12.854 A 10.558 10.558 0 0 1 256.617 11.108 A 12.524 12.524 0 0 1 260.023 11.547 A 9.107 9.107 0 0 1 264.625 14.502 Q 266.936 17.248 267.377 21.911 A 24.519 24.519 0 0 1 267.481 24.219 L 267.481 26.099 L 249.586 26.099 A 11.73 11.73 0 0 0 249.981 28.921 A 8.423 8.423 0 0 0 251.868 32.41 A 7.122 7.122 0 0 0 257.058 34.807 A 9.177 9.177 0 0 0 257.423 34.814 Q 259.815 34.814 261.475 33.838 Q 263.136 32.861 264.381 31.25 L 267.139 33.398 A 10.701 10.701 0 0 1 259.363 38.35 A 15.273 15.273 0 0 1 257.179 38.501 Q 251.807 38.501 248.438 34.973 A 11.864 11.864 0 0 1 245.415 29.078 A 17.238 17.238 0 0 1 245.069 25.537 Z M 295.142 25.537 L 295.142 24.707 A 17.608 17.608 0 0 1 295.566 20.768 A 14.34 14.34 0 0 1 296.644 17.688 A 12.173 12.173 0 0 1 299.13 14.213 A 11.296 11.296 0 0 1 300.843 12.854 A 10.558 10.558 0 0 1 306.69 11.108 A 12.524 12.524 0 0 1 310.096 11.547 A 9.107 9.107 0 0 1 314.698 14.502 Q 317.009 17.248 317.45 21.911 A 24.519 24.519 0 0 1 317.555 24.219 L 317.555 26.099 L 299.659 26.099 A 11.73 11.73 0 0 0 300.054 28.921 A 8.423 8.423 0 0 0 301.942 32.41 A 7.122 7.122 0 0 0 307.131 34.807 A 9.177 9.177 0 0 0 307.496 34.814 Q 309.889 34.814 311.549 33.838 Q 313.209 32.861 314.454 31.25 L 317.213 33.398 A 10.701 10.701 0 0 1 309.436 38.35 A 15.273 15.273 0 0 1 307.252 38.501 Q 301.881 38.501 298.512 34.973 A 11.864 11.864 0 0 1 295.488 29.078 A 17.238 17.238 0 0 1 295.142 25.537 Z M 390.333 25.537 L 390.333 24.707 A 17.608 17.608 0 0 1 390.757 20.768 A 14.34 14.34 0 0 1 391.834 17.688 A 12.173 12.173 0 0 1 394.32 14.213 A 11.296 11.296 0 0 1 396.034 12.854 A 10.558 10.558 0 0 1 401.881 11.108 A 12.524 12.524 0 0 1 405.287 11.547 A 9.107 9.107 0 0 1 409.889 14.502 Q 412.2 17.248 412.641 21.911 A 24.519 24.519 0 0 1 412.745 24.219 L 412.745 26.099 L 394.849 26.099 A 11.73 11.73 0 0 0 395.244 28.921 A 8.423 8.423 0 0 0 397.132 32.41 A 7.122 7.122 0 0 0 402.321 34.807 A 9.177 9.177 0 0 0 402.686 34.814 Q 405.079 34.814 406.739 33.838 Q 408.399 32.861 409.644 31.25 L 412.403 33.398 A 10.701 10.701 0 0 1 404.627 38.35 A 15.273 15.273 0 0 1 402.442 38.501 Q 397.071 38.501 393.702 34.973 A 11.864 11.864 0 0 1 390.679 29.078 A 17.238 17.238 0 0 1 390.333 25.537 Z M 66.383 38.013 L 61.866 38.013 L 61.866 15.088 L 57.691 15.088 L 57.691 11.597 L 61.866 11.597 L 61.866 8.887 Q 61.866 5.62 63.209 3.494 A 7.07 7.07 0 0 1 64.137 2.319 A 7.39 7.39 0 0 1 67.602 0.354 Q 68.769 0.044 70.157 0.006 A 14.371 14.371 0 0 1 70.557 0 Q 72.12 0 73.658 0.415 L 73.414 4.077 A 12.451 12.451 0 0 0 71.65 3.873 A 14.575 14.575 0 0 0 70.973 3.857 Q 69.002 3.857 67.836 4.888 A 3.757 3.757 0 0 0 67.579 5.139 A 4.15 4.15 0 0 0 66.654 6.785 Q 66.383 7.673 66.383 8.813 L 66.383 11.597 L 72.022 11.597 L 72.022 15.088 L 66.383 15.088 L 66.383 38.013 Z M 274.39 11.597 L 281.104 31.885 L 287.647 11.597 L 292.262 11.597 L 282.789 38.013 L 279.347 38.013 L 269.776 11.597 L 274.39 11.597 Z M 223.975 38.013 L 214.137 38.013 L 214.137 2.466 L 224.171 2.466 A 17.829 17.829 0 0 1 228.78 3.04 A 14.839 14.839 0 0 1 232.374 4.517 A 13.87 13.87 0 0 1 237.879 10.352 A 17.723 17.723 0 0 1 239.64 16.068 A 22.627 22.627 0 0 1 239.845 19.043 L 239.845 21.313 Q 239.845 26.343 237.904 30.127 A 13.653 13.653 0 0 1 232.362 35.938 A 16.007 16.007 0 0 1 226.851 37.789 A 20.654 20.654 0 0 1 223.975 38.013 Z M 78.614 5.2 L 83.131 5.2 L 83.131 11.597 L 88.062 11.597 L 88.062 15.088 L 83.131 15.088 L 83.131 31.47 A 6.102 6.102 0 0 0 83.189 32.342 Q 83.326 33.292 83.79 33.85 Q 84.294 34.456 85.339 34.599 A 5.154 5.154 0 0 0 86.036 34.644 A 5.809 5.809 0 0 0 86.578 34.615 Q 87.148 34.561 87.925 34.405 A 22.343 22.343 0 0 0 88.184 34.351 L 88.184 38.013 A 13.685 13.685 0 0 1 85.78 38.453 A 11.984 11.984 0 0 1 84.718 38.501 A 7.95 7.95 0 0 1 82.911 38.309 Q 81.192 37.907 80.152 36.67 Q 78.889 35.166 78.663 32.624 A 13.064 13.064 0 0 1 78.614 31.47 L 78.614 15.088 L 73.805 15.088 L 73.805 11.597 L 78.614 11.597 L 78.614 5.2 Z M 327.686 0.513 L 327.686 38.013 L 323.17 38.013 L 323.17 0.513 L 327.686 0.513 Z M 29.932 24.878 L 29.932 24.561 A 16.981 16.981 0 0 1 30.415 20.441 A 14.294 14.294 0 0 1 31.458 17.578 A 12 12 0 0 1 33.762 14.325 A 10.873 10.873 0 0 1 35.706 12.793 A 11.313 11.313 0 0 1 40.953 11.142 A 13.837 13.837 0 0 1 41.92 11.108 A 12.651 12.651 0 0 1 46.105 11.773 A 10.759 10.759 0 0 1 50.648 14.844 A 12.72 12.72 0 0 1 53.531 20.559 A 18.737 18.737 0 0 1 53.98 24.78 L 53.98 25.098 A 17.298 17.298 0 0 1 53.539 29.079 A 14.319 14.319 0 0 1 52.503 32.019 A 11.425 11.425 0 0 1 49.574 35.853 A 11.115 11.115 0 0 1 48.28 36.792 A 11.363 11.363 0 0 1 43.17 38.45 A 14.049 14.049 0 0 1 41.969 38.501 A 12.565 12.565 0 0 1 37.8 37.836 A 10.767 10.767 0 0 1 33.265 34.766 A 12.764 12.764 0 0 1 30.344 28.905 A 18.653 18.653 0 0 1 29.932 24.878 Z M 333.717 24.878 L 333.717 24.561 A 16.981 16.981 0 0 1 334.199 20.441 A 14.294 14.294 0 0 1 335.243 17.578 A 12 12 0 0 1 337.546 14.325 A 10.873 10.873 0 0 1 339.491 12.793 A 11.313 11.313 0 0 1 344.737 11.142 A 13.837 13.837 0 0 1 345.704 11.108 A 12.651 12.651 0 0 1 349.889 11.773 A 10.759 10.759 0 0 1 354.432 14.844 A 12.72 12.72 0 0 1 357.315 20.559 A 18.737 18.737 0 0 1 357.764 24.78 L 357.764 25.098 A 17.298 17.298 0 0 1 357.323 29.079 A 14.319 14.319 0 0 1 356.287 32.019 A 11.425 11.425 0 0 1 353.358 35.853 A 11.115 11.115 0 0 1 352.064 36.792 A 11.363 11.363 0 0 1 346.954 38.45 A 14.049 14.049 0 0 1 345.753 38.501 A 12.565 12.565 0 0 1 341.584 37.836 A 10.767 10.767 0 0 1 337.049 34.766 A 12.764 12.764 0 0 1 334.129 28.905 A 18.653 18.653 0 0 1 333.717 24.878 Z M 170.875 11.45 L 170.875 15.649 Q 169.849 15.479 168.653 15.479 A 7.984 7.984 0 0 0 166.268 15.811 Q 163.739 16.601 162.623 19.263 L 162.623 38.013 L 158.106 38.013 L 158.106 11.597 L 162.501 11.597 L 162.574 14.648 A 8.007 8.007 0 0 1 164.501 12.491 Q 166.182 11.216 168.479 11.117 A 9.089 9.089 0 0 1 168.873 11.108 A 8.253 8.253 0 0 1 169.564 11.135 Q 170.28 11.196 170.745 11.391 A 2.136 2.136 0 0 1 170.875 11.45 Z M 430.738 11.45 L 430.738 15.649 Q 429.713 15.479 428.516 15.479 A 7.984 7.984 0 0 0 426.132 15.811 Q 423.602 16.601 422.486 19.263 L 422.486 38.013 L 417.97 38.013 L 417.97 11.597 L 422.364 11.597 L 422.437 14.648 A 8.007 8.007 0 0 1 424.365 12.491 Q 426.046 11.216 428.342 11.117 A 9.089 9.089 0 0 1 428.736 11.108 A 8.253 8.253 0 0 1 429.428 11.135 Q 430.143 11.196 430.609 11.391 A 2.136 2.136 0 0 1 430.738 11.45 Z M 224.293 6.323 L 218.824 6.323 L 218.824 34.18 L 223.756 34.18 Q 229.176 34.18 232.191 30.811 Q 234.742 27.96 235.135 23.063 A 23.136 23.136 0 0 0 235.206 21.216 L 235.206 19.141 Q 235.206 13.086 232.362 9.729 A 9.37 9.37 0 0 0 226.829 6.568 A 13.882 13.882 0 0 0 224.293 6.323 Z M 34.473 25.098 A 15.398 15.398 0 0 0 34.737 28.032 Q 35.206 30.448 36.512 32.153 A 6.446 6.446 0 0 0 41.186 34.778 A 8.202 8.202 0 0 0 41.969 34.814 A 7.05 7.05 0 0 0 44.688 34.307 Q 46.24 33.665 47.365 32.211 A 8.188 8.188 0 0 0 47.437 32.117 A 9.155 9.155 0 0 0 48.853 29.243 Q 49.464 27.227 49.464 24.561 A 14.93 14.93 0 0 0 49.18 21.562 Q 48.803 19.727 47.929 18.291 A 8.812 8.812 0 0 0 47.401 17.517 Q 45.338 14.819 41.92 14.819 Q 38.643 14.819 36.608 17.374 A 8.421 8.421 0 0 0 36.524 17.48 Q 34.943 19.533 34.581 22.951 A 20.423 20.423 0 0 0 34.473 25.098 Z M 338.258 25.098 A 15.398 15.398 0 0 0 338.521 28.032 Q 338.99 30.448 340.296 32.153 A 6.446 6.446 0 0 0 344.971 34.778 A 8.202 8.202 0 0 0 345.753 34.814 A 7.05 7.05 0 0 0 348.472 34.307 Q 350.024 33.665 351.149 32.211 A 8.188 8.188 0 0 0 351.222 32.117 A 9.155 9.155 0 0 0 352.638 29.243 Q 353.248 27.227 353.248 24.561 A 14.93 14.93 0 0 0 352.964 21.562 Q 352.588 19.727 351.713 18.291 A 8.812 8.812 0 0 0 351.185 17.517 Q 349.122 14.819 345.704 14.819 Q 342.427 14.819 340.392 17.374 A 8.421 8.421 0 0 0 340.308 17.48 Q 338.727 19.533 338.365 22.951 A 20.423 20.423 0 0 0 338.258 25.098 Z M 367.945 18.579 L 367.945 31.201 A 7.396 7.396 0 0 0 369.767 33.403 Q 371.537 34.814 374.146 34.814 A 6.577 6.577 0 0 0 376.733 34.321 Q 378.162 33.717 379.208 32.373 A 7.792 7.792 0 0 0 379.31 32.239 Q 380.679 30.399 381.07 27.282 A 21.721 21.721 0 0 0 381.226 24.585 A 16.984 16.984 0 0 0 381.011 21.795 Q 380.759 20.283 380.211 19.062 A 8.351 8.351 0 0 0 379.322 17.529 Q 377.418 14.941 374.098 14.941 Q 369.996 14.941 367.945 18.579 Z M 146.51 30.615 L 146.51 25.195 L 142.97 25.195 A 21.199 21.199 0 0 0 140.149 25.366 Q 137.061 25.783 135.713 27.219 A 3.977 3.977 0 0 0 134.669 30.054 A 5.111 5.111 0 0 0 134.86 31.488 A 3.814 3.814 0 0 0 136.085 33.374 A 4.964 4.964 0 0 0 138.382 34.448 A 6.994 6.994 0 0 0 139.723 34.57 A 7.938 7.938 0 0 0 143.751 33.472 A 7.414 7.414 0 0 0 145.393 32.208 A 6.154 6.154 0 0 0 146.51 30.615 Z M 178.077 22.388 L 191.309 22.388 L 191.309 22.046 A 12.412 12.412 0 0 0 191.013 19.908 Q 190.735 18.726 190.217 17.797 A 6.279 6.279 0 0 0 189.454 16.711 Q 187.794 14.819 184.962 14.819 Q 182.227 14.819 180.372 16.809 A 7.872 7.872 0 0 0 178.835 19.286 Q 178.426 20.309 178.204 21.542 A 15.226 15.226 0 0 0 178.077 22.388 Z M 249.732 22.388 L 262.965 22.388 L 262.965 22.046 A 12.412 12.412 0 0 0 262.668 19.908 Q 262.39 18.726 261.872 17.797 A 6.279 6.279 0 0 0 261.109 16.711 Q 259.449 14.819 256.617 14.819 Q 253.883 14.819 252.027 16.809 A 7.872 7.872 0 0 0 250.49 19.286 Q 250.081 20.309 249.859 21.542 A 15.226 15.226 0 0 0 249.732 22.388 Z M 299.806 22.388 L 313.038 22.388 L 313.038 22.046 A 12.412 12.412 0 0 0 312.741 19.908 Q 312.463 18.726 311.945 17.797 A 6.279 6.279 0 0 0 311.182 16.711 Q 309.522 14.819 306.69 14.819 Q 303.956 14.819 302.1 16.809 A 7.872 7.872 0 0 0 300.563 19.286 Q 300.155 20.309 299.933 21.542 A 15.226 15.226 0 0 0 299.806 22.388 Z M 394.996 22.388 L 408.228 22.388 L 408.228 22.046 A 12.412 12.412 0 0 0 407.932 19.908 Q 407.654 18.726 407.136 17.797 A 6.279 6.279 0 0 0 406.373 16.711 Q 404.713 14.819 401.881 14.819 Q 399.146 14.819 397.291 16.809 A 7.872 7.872 0 0 0 395.754 19.286 Q 395.345 20.309 395.123 21.542 A 15.226 15.226 0 0 0 394.996 22.388 Z" vector-effect="non-scaling-stroke"/></g></svg>